<svg width="304" height="212" viewBox="0 0 304 212" fill="none" xmlns="http://www.w3.org/2000/svg">
<g clip-path="url(#clip0)">
<path d="M30.4691 35.9781C38.6789 35.9781 45.3342 29.3228 45.3342 21.113C45.3342 12.9032 38.6789 6.24788 30.4691 6.24788C22.2593 6.24788 15.604 12.9032 15.604 21.113C15.604 29.3228 22.2593 35.9781 30.4691 35.9781Z" fill="#7868E6"/>
<path opacity="0.1" d="M28.6529 51.374C34.8944 65.4717 26.9327 81.7053 17.5609 93.9293C14.4241 98.0285 10.9613 102.326 10.5264 107.467C10.002 113.757 14.2611 119.538 19.3131 123.317C28.5282 130.205 41.1135 132.334 52.0809 128.859C61.5583 125.856 69.5264 119.074 79.0869 116.34C95.0743 111.762 112.021 119.353 125.713 128.811C135.404 135.497 145.783 143.644 157.467 142.211C165.688 141.204 172.664 135.433 177.4 128.638C179.686 125.357 181.675 121.68 185.004 119.468C186.983 118.15 189.307 117.453 191.632 116.954C212.86 112.417 235.39 123.49 256.336 117.795C270.485 113.958 281.766 102.767 288.781 89.8909C295.796 77.0146 299.071 62.4757 301.798 48.071C303.736 37.839 305.344 26.7853 300.89 17.3751C296.177 7.41178 285.267 1.37173 274.303 0.239818C263.339 -0.892091 252.343 2.23185 242.242 6.63799C229.621 12.1568 217.25 19.882 203.475 19.9075C194.094 19.9267 185.147 16.3264 176.178 13.5797C161.182 8.99134 145.588 6.71153 130.048 4.60758C115.17 2.59317 100.146 0.719441 85.1781 1.90891C74.588 2.74984 65.2354 6.79786 54.9587 8.67159C48.2599 9.89303 41.5292 8.99133 34.9552 11.0377C26.8592 13.5701 18.5329 19.4375 18.0853 28.6782C17.6632 37.4745 25.3435 43.8951 28.6529 51.374Z" fill="#7868E6"/>
<path d="M192.508 63.9273C191.143 60.3685 187.622 52.0039 185.304 53.6634C182.375 55.7609 188.233 65.0272 188.233 65.0272C188.399 66.7283 185.106 70.2679 183.341 72.0329C183.341 71.8923 183.341 71.8123 183.341 71.8123C183.324 71.8794 183.298 71.944 183.264 72.0042L183.117 71.9242C183.078 72.0653 183.007 72.1954 182.909 72.3047C182.909 72.0649 182.893 71.9242 182.893 71.9242C182.554 73.3599 176.639 75.1793 176.639 75.1793C176.639 75.1793 176.479 75.1793 176.204 75.1793C174.561 75.1793 170.282 74.8084 168.3 71.6365C167.275 69.9181 165.963 68.3879 164.421 67.112C163.893 66.6984 163.252 66.4553 162.583 66.415C157.106 66.0632 152.671 63.291 151.785 62.6995L151.622 62.5876L151.587 62.6899C151.379 62.3925 151.177 62.076 150.989 61.7498L150.893 61.574C152.219 60.9084 153.334 59.8887 154.116 58.6278C154.898 57.367 155.315 55.9143 155.321 54.4308C155.321 54.3764 155.321 54.3189 155.321 54.2645C155.803 53.4317 156.057 52.4865 156.057 51.5243V50.565L157.307 49.4523C157.879 48.9439 158.471 48.4067 158.762 47.7065C158.879 47.4231 158.931 47.1173 158.915 46.8112C158.943 46.5489 158.904 46.2839 158.801 46.041C158.698 45.7982 158.535 45.5857 158.327 45.4235C157.368 44.7616 155.769 45.4235 155.075 44.5026C154.755 44.0869 154.813 43.521 154.656 43.0318C154.336 42.0373 153.185 41.5002 152.121 41.4842C151.056 41.4682 150.036 41.8551 149.013 42.146C146.863 42.7563 144.62 42.9666 142.394 42.7664C141.792 42.6592 141.174 42.681 140.581 42.8303C140.219 42.98 139.897 43.2129 139.641 43.5101C139.386 43.8073 139.204 44.1604 139.11 44.541C139.031 44.8269 138.984 45.1207 138.969 45.4171C138.077 46.4232 137.584 47.7207 137.582 49.0654V51.5243C137.584 52.8369 138.054 54.1058 138.909 55.1023C139.009 56.2592 139.361 57.3803 139.939 58.3875C140.518 59.3947 141.308 60.2639 142.256 60.9345C142.256 60.9984 142.256 61.0634 142.256 61.1295L142.298 61.1551C142.246 61.9174 142.129 62.6738 141.946 63.4157V63.2526C141.946 63.2526 137.47 65.6348 132.674 65.6923H132.146C131.2 65.6605 130.28 66.0055 129.588 66.6516C128.168 67.9881 125.681 70.1017 124.152 70.1017C123.832 70.1017 115.762 71.678 114.425 71.9402L111.928 69.4941L111.852 69.638L111.704 69.4941C111.431 69.5152 111.16 69.5548 110.892 69.6125C109.613 68.0968 107.055 64.5732 106.464 59.8441C106.464 59.8441 111.986 53.5547 109.955 47.6937C108.222 42.6992 103.449 53.4044 102.093 56.6307C101.856 57.1936 101.826 57.8226 102.01 58.4053L106.496 72.8643C106.069 73.9847 105.946 75.1983 106.141 76.3815H106.09L109.357 80.5734C109.357 80.5734 111.816 81.6222 115.663 81.603C118.482 81.6076 121.276 81.0714 123.893 80.0235H124.651L124.507 80.0778H128.398L130.873 87.5631C130.79 88.2442 129.594 97.7503 128.635 99.8766C128.35 100.587 128.222 101.35 128.258 102.115C128.308 103.584 128.548 105.04 128.971 106.447L131.139 106.368L131.056 106.537C129.22 110.3 126.154 117.006 124.341 123.273L121.185 129.668L123.551 158.349H123.647L123.829 158.378C124.085 158.416 124.469 158.474 124.974 158.538L124.789 158.857L119.573 167.491C119.573 167.491 115.855 175.104 124.082 173.668C124.082 173.668 127.123 172.786 128.363 167.593L133.773 162.519C133.773 162.519 134.026 159.148 132.494 157.802C132.399 156.245 132.156 151.698 132.53 150.605C132.98 149.281 130.611 134.058 130.611 134.058C130.611 134.058 139.174 116.296 144.36 115.854C144.741 115.828 145.122 115.878 145.483 116.002C149.745 117.389 154.909 127.695 156.428 130.902L156.498 131.049V131.078L156.556 131.202V131.238L156.607 131.346V131.375L156.651 131.474V131.497L156.69 131.577V131.608L156.719 131.669V131.695L156.738 131.74V131.765V131.794L156.754 131.832L157.428 151.801L157.496 151.836H157.528L157.47 152.248L157.176 154.311C157.176 154.311 160.895 162.144 160.668 163.136C160.44 164.127 163.146 168.101 166.976 166.998C170.807 165.895 168.527 159.676 168.527 159.676L164.837 152.072L164.674 151.733C165.042 151.508 165.388 151.25 165.71 150.963C165.71 150.963 164.584 142.8 165.71 141.035C166.835 139.27 167.174 131.215 167.174 131.215C167.174 131.215 166.385 125.7 165.032 123.273L159.366 103.049C161.064 104.628 162.385 105.245 163.488 105.204H163.67C164.155 105.213 164.634 105.094 165.058 104.858C165.285 104.73 165.5 104.579 165.697 104.407C165.735 104.375 165.77 104.34 165.803 104.302C167.379 102.978 163.999 97.7919 162.084 94.7095C160.239 91.7358 162.781 83.6558 162.973 83.0547C163.144 82.9294 163.327 82.8222 163.52 82.7349C163.916 82.565 164.342 82.4727 164.773 82.4631C166.608 82.5271 168.866 83.5823 171.66 84.113C173.603 84.4434 175.571 84.5964 177.541 84.5703H177.656C178.439 84.5703 179.149 84.5543 179.725 84.5319C180.25 84.5113 180.763 84.3725 181.227 84.1258C181.625 83.8939 181.985 83.6028 182.295 83.2625L187.2 77.7213L187.072 77.782C187.31 77.1536 187.31 76.46 187.072 75.8316L192.255 66.8786C192.517 66.4374 192.676 65.9429 192.719 65.4319C192.763 64.9208 192.691 64.4065 192.508 63.9273Z" fill="url(#paint0_linear)"/>
<path d="M134.275 161.761L129.054 166.765C127.858 171.881 124.92 172.747 124.92 172.747C116.98 174.161 120.568 166.672 120.568 166.672L125.604 158.151L126.224 157.099C126.224 157.099 129.815 156.012 132.207 156.664C132.509 156.747 132.788 156.898 133.022 157.105C134.522 158.407 134.275 161.761 134.275 161.761Z" fill="#444176"/>
<path d="M166.471 166.221C162.771 167.308 160.162 163.395 160.396 162.413C160.629 161.431 157.016 153.722 157.016 153.722L157.297 151.689L157.56 149.805L163.635 150.24L164.207 151.442L167.769 158.941C167.769 158.941 170.17 165.134 166.471 166.221Z" fill="#444176"/>
<path opacity="0.1" d="M133.08 157.956C132.507 158.937 127.868 158.442 125.607 158.135L126.227 157.083C126.227 157.083 129.818 155.996 132.21 156.648C132.512 156.731 132.791 156.882 133.025 157.089C133.057 157.62 133.08 157.956 133.08 157.956Z" fill="black"/>
<path opacity="0.1" d="M164.213 151.436C161.102 153.508 157.79 151.941 157.291 151.682L157.553 149.799L163.628 150.234L164.213 151.436Z" fill="black"/>
<path d="M165.058 140.552C163.971 142.291 165.058 150.343 165.058 150.343C161.467 153.607 157.227 151.212 157.227 151.212L156.588 131.525C156.588 131.525 149.518 115.317 144.514 115.752C139.51 116.187 131.244 133.7 131.244 133.7C131.244 133.7 133.527 148.709 133.092 150.007C132.658 151.305 133.092 157.62 133.092 157.62C132.331 158.925 124.392 157.62 124.392 157.62L122.109 129.338L125.14 123.026C126.883 116.849 129.844 110.236 131.615 106.527C132.494 104.682 133.083 103.557 133.083 103.557L138.87 102.351L157.655 98.457L164.405 123.026C165.71 125.418 166.471 130.857 166.471 130.857C166.471 130.857 166.145 138.812 165.058 140.552Z" fill="#565387"/>
<g opacity="0.1">
<path opacity="0.1" d="M158.966 151.212L158.327 131.525C158.327 131.525 151.257 115.317 146.253 115.752C146.03 115.774 145.809 115.823 145.598 115.899C150.477 117.52 156.587 131.525 156.587 131.525L157.227 151.212C158.561 151.892 160.065 152.166 161.553 152.002C160.651 151.894 159.775 151.626 158.966 151.212Z" fill="black"/>
<path opacity="0.1" d="M126.119 157.63L123.836 129.348L126.88 123.026C128.622 116.849 131.583 110.236 133.355 106.527C134.234 104.682 134.822 103.557 134.822 103.557L140.61 102.351L157.758 98.7863L157.665 98.4442L138.87 102.351L133.083 103.557C133.083 103.557 132.494 104.682 131.615 106.527C129.837 110.236 126.883 116.862 125.14 123.026L122.096 129.335L124.379 157.617C124.379 157.617 128.715 158.33 131.286 158.173C129.555 158.079 127.831 157.898 126.119 157.63Z" fill="black"/>
</g>
<path d="M112.891 70.0153C112.891 70.0153 106.691 70.3351 107.56 76.8675L109.3 77.085L111.909 74.2584L113.214 71.8667V71.3231L112.891 70.0153Z" fill="#CED2DF"/>
<path opacity="0.1" d="M112.891 70.0153C112.891 70.0153 106.691 70.3351 107.56 76.8675L109.3 77.085L111.909 74.2584L113.214 71.8667V71.3231L112.891 70.0153Z" fill="black"/>
<path d="M181.864 72.407C181.864 72.407 186.98 75.1249 185.672 78.2808L184.041 78.9203L181.867 77.7245L181.547 74.8979L181.765 72.941L181.864 72.407Z" fill="#CED2DF"/>
<path opacity="0.1" d="M181.864 72.407C181.864 72.407 186.98 75.1249 185.672 78.2808L184.041 78.9203L181.867 77.7245L181.547 74.8979L181.765 72.941L181.864 72.407Z" fill="black"/>
<path d="M149.016 44.3427H144.664C140.94 44.3427 137.921 47.3619 137.921 51.0862C137.921 54.8105 140.94 57.8297 144.664 57.8297H149.016C152.74 57.8297 155.759 54.8105 155.759 51.0862C155.759 47.3619 152.74 44.3427 149.016 44.3427Z" fill="#88455E"/>
<path d="M112.849 70.9394L109.041 77.0146L108.721 75.9339L103.548 59.0767C103.371 58.5021 103.399 57.8838 103.628 57.3277C104.935 54.1494 109.546 43.5785 111.218 48.5186C113.175 54.2741 107.845 60.4836 107.845 60.4836C108.453 65.5228 111.282 69.1744 112.395 70.4406C112.676 70.7699 112.849 70.9394 112.849 70.9394Z" fill="#EC8C9C"/>
<path d="M181.048 73.5486C181.048 73.5486 187.031 67.8922 186.804 65.6092C186.804 65.6092 181.147 56.474 183.977 54.418C186.215 52.7809 189.614 61.0304 190.932 64.538C191.106 65.0053 191.176 65.5049 191.137 66.002C191.097 66.4991 190.95 66.9816 190.705 67.4158L183.555 80.0746L181.048 73.5486Z" fill="#EC8C9C"/>
<path d="M142.324 57.7785C142.324 57.7785 143.411 64.7395 140.258 67.3518C137.105 69.9642 149.288 69.9482 149.288 69.9482L153.639 65.9225C153.639 65.9225 148.635 61.2446 150.157 57.7657L142.324 57.7785Z" fill="#EC8C9C"/>
<path opacity="0.1" d="M142.106 65.7179C142.106 65.7179 146.784 69.2 151.459 65.2831L159.072 81.0562L158.637 100.308C158.637 100.308 142.864 108.465 136.338 103.464C129.812 98.4633 135.251 95.851 135.251 95.851L133.729 81.0594L135.359 71.4862C135.359 71.4862 138.295 66.917 138.515 66.917C138.736 66.917 142.106 65.7179 142.106 65.7179Z" fill="black"/>
<path d="M142.106 65.5005C142.106 65.5005 146.784 68.9889 151.462 65.0656L159.075 80.8388L158.64 100.091C158.64 100.091 142.867 108.248 136.341 103.247C129.815 98.2459 135.254 95.6336 135.254 95.6336L133.732 80.842L135.363 71.2687C135.363 71.2687 138.298 66.6995 138.519 66.6995C138.739 66.6995 142.106 65.5005 142.106 65.5005Z" fill="#EBF1F6"/>
<path opacity="0.1" d="M142.106 63.873C142.106 63.873 137.671 66.399 132.856 66.2743C132.404 66.2601 131.954 66.336 131.532 66.4973C131.11 66.6587 130.724 66.9025 130.397 67.2143C129.025 68.5317 126.624 70.6164 125.137 70.6164C124.817 70.6164 115.564 72.4646 115.564 72.4646L113.118 70.0185C113.118 70.0185 109.473 77.1425 107.733 76.8164L110.889 80.9507C110.889 80.9507 116.872 83.5599 124.702 80.4071H129.271L131.663 87.8029C131.663 87.8029 130.467 97.8111 129.489 99.9853C128.51 102.16 129.809 106.403 129.809 106.403L138.4 106.083C138.4 106.083 138.835 101.84 139.487 101.287C140.14 100.734 137.204 82.0347 137.204 82.0347C137.204 82.0347 135.247 71.483 142.426 67.678L142.106 63.873Z" fill="black"/>
<path opacity="0.1" d="M138.867 102.364C138.551 103.655 138.325 104.966 138.192 106.288L131.615 106.537C132.494 104.692 133.083 103.567 133.083 103.567L138.867 102.364Z" fill="black"/>
<path opacity="0.1" d="M112.849 70.9394L109.041 77.0146L108.721 75.9339C110.118 74.5462 111.756 71.646 112.408 70.4374C112.676 70.7699 112.849 70.9394 112.849 70.9394Z" fill="black"/>
<path d="M142.106 63.873C142.106 63.873 137.451 66.399 132.638 66.2743C132.187 66.2601 131.737 66.336 131.315 66.4973C130.892 66.6587 130.507 66.9025 130.179 67.2143C128.808 68.5317 126.406 70.6164 124.92 70.6164C124.6 70.6164 115.346 72.4646 115.346 72.4646L112.891 70.0153C112.891 70.0153 109.246 77.1393 107.506 76.8132L110.662 80.9475C110.662 80.9475 116.645 83.5567 124.475 80.4039H129.044L131.436 87.7965C131.436 87.7965 130.24 97.8047 129.262 99.9789C128.283 102.153 129.582 106.396 129.582 106.396L138.173 106.077C138.173 106.077 138.608 101.833 139.26 101.28C139.913 100.727 136.977 82.0283 136.977 82.0283C136.977 82.0283 135.02 71.4766 142.199 67.6716L142.106 63.873Z" fill="#CED2DF"/>
<path opacity="0.1" d="M151.462 63.2143C151.462 63.2143 155.9 66.5972 161.825 66.9873C162.473 67.028 163.093 67.2681 163.6 67.6748C165.094 68.9424 166.36 70.4564 167.344 72.1512C169.736 76.0682 175.609 75.6333 175.609 75.6333C175.609 75.6333 181.32 73.8395 181.646 72.4358C181.646 72.4358 181.809 80.1098 185.4 78.2552L180.677 83.6974C180.38 84.0411 180.015 84.3203 179.605 84.5177C179.195 84.7152 178.75 84.8266 178.295 84.8453C176.521 84.9156 173.438 84.938 170.836 84.4328C166.919 83.6718 164.092 81.8236 162.026 83.4543C162.026 83.4543 159.309 91.9373 161.157 94.9845C163.005 98.0317 166.273 103.141 164.747 104.449C163.222 105.757 161.374 105.645 158.33 102.492C155.286 99.3395 154.957 94.0093 154.957 94.0093L155.718 80.3048C155.718 80.3048 152.782 69.9705 149.962 67.905L151.462 63.2143Z" fill="black"/>
<path opacity="0.1" d="M185.832 78.1177L181.096 83.5823C180.781 83.9448 180.392 84.2349 179.955 84.4328C179.566 84.6083 179.147 84.7071 178.72 84.7238C176.946 84.7973 173.863 84.8197 171.261 84.3113C167.596 83.5982 164.885 81.9355 162.858 83.0579C162.714 83.137 162.577 83.2279 162.448 83.3297C162.448 83.3297 159.731 91.8126 161.579 94.8598C163.427 97.907 166.695 103.017 165.17 104.324C164.914 104.549 164.628 104.735 164.319 104.878C162.95 105.495 161.253 104.961 158.752 102.367C155.708 99.2116 155.379 93.8845 155.379 93.8845L156.14 80.1801C156.14 80.1801 153.205 69.8459 150.384 67.7803L151.628 63.3198C152.485 63.9017 156.763 66.6356 162.052 66.9841C162.7 67.0248 163.32 67.2649 163.827 67.6716C165.321 68.9394 166.587 70.4534 167.571 72.148C169.963 76.065 175.836 75.6301 175.836 75.6301C177.245 75.1809 178.62 74.6338 179.952 73.993C180.786 73.5837 181.521 73.1361 181.87 72.714C181.968 72.6038 182.039 72.4725 182.078 72.3303C182.078 72.3303 182.244 79.9659 185.832 78.1177Z" fill="black"/>
<path d="M185.614 78.2265L180.882 83.6973C180.622 83.9976 180.31 84.2488 179.961 84.4392C179.514 84.6818 179.018 84.8186 178.509 84.8389C176.735 84.9124 173.652 84.9348 171.05 84.4264C167.517 83.7389 164.866 82.1657 162.867 83.0642C162.639 83.1636 162.424 83.2915 162.228 83.4447C162.228 83.4447 159.51 91.9277 161.358 94.9749C163.206 98.0221 166.474 103.132 164.949 104.439C164.752 104.609 164.537 104.758 164.309 104.884C162.903 105.661 161.163 105.204 158.525 102.483C155.481 99.3266 155.152 93.9996 155.152 93.9996L155.913 80.2952C155.913 80.2952 152.978 69.961 150.157 67.8954L151.462 63.2175L151.619 63.3262C152.476 63.9081 156.754 66.642 162.042 66.9905C162.691 67.0312 163.311 67.2713 163.817 67.678C165.311 68.9458 166.577 70.4598 167.561 72.1544C169.953 76.0713 175.827 75.6365 175.827 75.6365C177.235 75.1873 178.61 74.6402 179.942 73.9994C180.93 73.4942 181.736 72.941 181.86 72.4358C181.86 72.4358 181.86 72.5349 181.86 72.7108C181.956 74.0314 182.436 79.8604 185.614 78.2265Z" fill="#CED2DF"/>
<path opacity="0.1" d="M150.253 57.9416H142.26C142.435 59.2126 142.486 60.4978 142.41 61.7786C143.63 62.6373 145.061 63.1475 146.549 63.2545C148.038 63.3616 149.527 63.0613 150.858 62.3861C150.09 60.9664 149.623 59.3549 150.253 57.9416Z" fill="black"/>
<path d="M147.11 63.1056C151.495 63.1056 155.05 59.551 155.05 55.1662C155.05 50.7814 151.495 47.2269 147.11 47.2269C142.725 47.2269 139.171 50.7814 139.171 55.1662C139.171 59.551 142.725 63.1056 147.11 63.1056Z" fill="#EC8C9C"/>
<path opacity="0.1" d="M145.46 53.7529C146.346 53.6474 147.232 53.334 148.105 53.5099C148.898 53.6698 149.572 54.2165 150.365 54.3828C151.894 54.7026 153.313 53.577 154.468 52.5283L156.962 50.2581C157.515 49.7561 158.084 49.2285 158.369 48.5378C158.653 47.8472 158.554 46.9391 157.946 46.5042C157.035 45.8647 155.465 46.5042 154.807 45.5961C154.509 45.1868 154.554 44.6369 154.4 44.1477C154.081 43.1692 152.981 42.6353 151.951 42.6225C150.922 42.6097 149.937 42.987 148.952 43.262C146.877 43.8638 144.708 44.0709 142.557 43.8727C141.976 43.7664 141.38 43.7871 140.808 43.9334C140.456 44.0837 140.144 44.3144 139.898 44.6071C139.651 44.8997 139.477 45.2462 139.388 45.6185C138.896 47.3579 139.737 50.1621 140.581 51.7193C141.425 53.2765 143.775 53.9607 145.46 53.7529Z" fill="black"/>
<path d="M145.46 53.5355C146.346 53.43 147.232 53.1166 148.105 53.2925C148.898 53.4524 149.572 53.9991 150.365 54.1654C151.894 54.4851 153.313 53.3596 154.468 52.3109L156.962 50.0406C157.515 49.5386 158.084 49.011 158.369 48.3204C158.653 47.6297 158.554 46.7216 157.946 46.2868C157.035 45.6473 155.465 46.2868 154.807 45.3787C154.509 44.9694 154.554 44.4195 154.4 43.9302C154.081 42.9518 152.981 42.4178 151.951 42.405C150.922 42.3923 149.937 42.7696 148.952 43.0445C146.877 43.6464 144.708 43.8535 142.557 43.6553C141.976 43.549 141.38 43.5697 140.808 43.716C140.456 43.8663 140.144 44.097 139.898 44.3896C139.651 44.6823 139.477 45.0287 139.388 45.4011C138.896 47.1405 139.737 49.9447 140.581 51.5019C141.425 53.0591 143.775 53.7273 145.46 53.5355Z" fill="#88455E"/>
<path opacity="0.1" d="M131.612 87.8541C131.612 87.8541 133.351 88.0715 134.221 89.1587C135.091 90.2458 136.613 90.572 136.613 90.572" fill="black"/>
<path opacity="0.1" d="M115.947 73.4942C115.947 73.4942 117.367 76.6629 116.491 76.9826C115.615 77.3024 115.947 79.5918 115.947 79.5918" fill="black"/>
<g opacity="0.1">
<path opacity="0.1" d="M116.437 72.407C116.437 72.407 125.681 70.5589 126 70.5589C127.49 70.5589 129.889 68.4741 131.26 67.1568C131.677 66.7571 132.191 66.4719 132.75 66.3286H132.632C132.18 66.3145 131.73 66.3903 131.308 66.5517C130.886 66.7131 130.5 66.9568 130.173 67.2687C128.801 68.5861 126.4 70.6708 124.913 70.6708C124.654 70.6708 118.739 71.8443 116.338 72.3207L116.437 72.407Z" fill="black"/>
<path opacity="0.1" d="M142.119 64.3302V63.9241C139.895 65.058 137.502 65.8236 135.033 66.1911C137.483 65.9731 139.878 65.344 142.119 64.3302Z" fill="black"/>
<path opacity="0.1" d="M130.688 106.342C130.688 106.342 129.383 102.099 130.368 99.9246C131.353 97.7503 132.542 87.7422 132.542 87.7422L130.157 80.3464H125.575L125.297 80.4551H129.054L131.436 87.8541C131.436 87.8541 130.24 97.8622 129.262 100.036C128.283 102.211 129.582 106.454 129.582 106.454L138.173 106.134V106.067L130.688 106.342Z" fill="black"/>
</g>
<g opacity="0.1">
<path opacity="0.1" d="M165.058 102.7C164.86 102.87 164.646 103.019 164.418 103.144C163.011 103.921 161.272 103.464 158.634 100.743C156.217 98.2395 155.513 94.3482 155.324 92.8741L155.261 93.9997C155.261 93.9997 155.58 99.3299 158.634 102.483C161.272 105.213 163.011 105.661 164.418 104.884C164.646 104.758 164.86 104.609 165.058 104.439C165.515 104.046 165.54 103.308 165.301 102.387C165.241 102.506 165.159 102.613 165.058 102.7Z" fill="black"/>
<path opacity="0.1" d="M184.076 78.3895L180.997 81.9483C180.737 82.2486 180.425 82.4998 180.076 82.6901C179.629 82.9328 179.133 83.0696 178.625 83.0898C176.85 83.1634 173.768 83.1857 171.165 82.6773C167.632 81.9899 164.981 80.4167 162.982 81.3152C162.754 81.4146 162.539 81.5425 162.343 81.6957C162.343 81.6957 160.588 87.1762 160.856 90.9077C161.064 87.4192 162.343 83.4352 162.343 83.4352C162.539 83.2819 162.754 83.1541 162.982 83.0547C164.984 82.1562 167.632 83.7293 171.165 84.4168C173.768 84.922 176.847 84.8996 178.625 84.8293C179.133 84.809 179.629 84.6723 180.076 84.4296C180.424 84.2421 180.736 83.9942 180.997 83.6973L185.733 78.2328C185.487 78.3854 185.21 78.479 184.923 78.5062C184.635 78.5334 184.346 78.4935 184.076 78.3895Z" fill="black"/>
</g>
<path d="M45.0209 117.556C45.0588 117.592 45.1076 117.616 45.16 117.623C45.2124 117.63 45.2656 117.62 45.3118 117.594C45.2135 117.596 45.1154 117.583 45.0209 117.556Z" fill="url(#paint1_linear)"/>
<path d="M77.6064 64.5892C77.0309 64.4229 76.2091 64.1511 75.2211 63.8058C76.2478 62.4849 76.9991 60.9714 77.4306 59.3549L77.3474 59.3869C77.3762 59.2878 77.405 59.1918 77.4306 59.0895C75.5345 59.8601 73.4369 58.5555 72.1003 56.8801C70.7638 55.2046 69.8621 53.1262 68.3977 51.585C67.7874 50.9719 67.131 50.4064 66.4344 49.8936C66.0027 49.5738 65.5391 49.2125 65.0115 49.1965C64.1578 49.1709 63.4895 50.0087 62.6678 50.2549C62.1271 50.3766 61.564 50.3556 61.0339 50.1941C58.9139 49.7081 56.8771 48.8096 54.7124 48.573C53.5543 48.4299 52.3787 48.5625 51.2815 48.9599C50.1944 49.3724 49.6988 50.1941 48.8195 50.8528C47.8602 51.5594 45.9865 51.5435 44.8706 51.6682C43.5164 51.8228 42.1529 51.8795 40.7906 51.8376C40.0077 51.7697 39.2194 51.7987 38.4436 51.924C36.8225 52.2789 35.5211 53.5675 34.3061 54.8017C33.9744 55.0809 33.7357 55.4546 33.6218 55.8729C33.6062 55.9906 33.6062 56.11 33.6218 56.2278C33.6096 56.5501 33.6651 56.8715 33.7849 57.171C34.1589 58.2809 34.6874 59.3325 35.3549 60.295C35.8505 61.0048 36.4292 61.6731 36.7106 62.514C36.844 62.9274 36.914 63.3586 36.9184 63.793C36.9046 64.2543 36.8565 64.7138 36.7745 65.1679C36.56 66.4234 36.2072 67.6512 35.7226 68.8291C35.4217 69.4337 35.2147 70.0806 35.1087 70.7476C35.0995 70.8838 35.0995 71.0206 35.1087 71.1568C35.0287 73.2672 37.1582 74.786 37.5707 76.8835C37.6046 77.0575 37.6249 77.2339 37.6315 77.4111C37.5867 78.7189 36.8417 79.9979 35.7418 80.5063C35.8377 80.5446 35.9368 80.5766 36.0359 80.6086C35.9413 80.668 35.8431 80.7214 35.7418 80.7685C35.9432 80.8452 36.1478 80.9124 36.3557 80.9667C35.1056 82.0555 34.0549 83.354 33.2509 84.8037C29.5514 91.6911 4.49593 105.181 4.49593 105.181L4.86684 105.392L4.56628 105.587C2.39838 107.029 -2.68882 111.234 1.90917 116.552C1.90917 116.552 5.49994 110.886 8.01636 108.471C8.12827 108.363 8.24018 108.264 8.33611 108.171C8.39139 108.256 8.42846 108.352 8.44497 108.452C8.46148 108.552 8.45707 108.654 8.43203 108.753L24.9055 99.4961C24.9055 99.4961 30.7601 95.397 32.394 94.4729C33.544 93.7564 34.7955 93.2174 36.1063 92.8742L35.9144 92.9541C36.5304 92.7847 37.1654 92.6944 37.8041 92.6855C40.7202 92.7303 43.8794 94.8662 44.9185 103.324C46.3126 114.649 45.6667 116.692 45.2191 116.97C45.1639 116.966 45.1093 116.957 45.056 116.942C45.0699 116.954 45.0848 116.964 45.1008 116.974C45.0401 116.969 44.9801 116.959 44.9217 116.942C44.9539 116.971 44.9932 116.992 45.0357 117.002C45.0783 117.012 45.1227 117.011 45.1647 116.999C45.195 117.008 45.2268 117.011 45.2582 117.007C45.2896 117.003 45.3199 116.993 45.347 116.977C45.4205 116.981 45.4941 116.981 45.5676 116.977C45.5676 117.081 45.5602 117.188 45.5452 117.297C45.5229 117.297 45.4141 117.357 45.5452 117.364C45.5101 118.003 45.5133 118.697 45.5452 119.423C44.0968 119.503 42.6483 119.589 41.3885 119.666L41.5004 119.068L41.5516 118.799C42.6643 118.71 43.7195 118.384 43.8442 117.482C44.116 115.5 41.3949 114.441 39.0799 114.31C36.7649 114.179 22.8815 115.103 22.8815 115.103C22.8815 115.103 20.7999 117.799 27.4027 118.62C27.5988 118.723 27.8024 118.829 28.0134 118.94C30.6002 120.414 34.1078 123.129 35.7897 124.465L36.0231 124.651L35.2685 125.265C39.3517 126.189 43.3006 141.792 45.4781 148.926C47.6556 156.06 52.4198 155.801 56.3687 154.742C60.0682 153.751 60.5255 143.008 60.5862 141.658V141.521L67.1666 149.649L67.6654 150.266C67.8573 150.366 68.047 150.46 68.2346 150.547C73.2163 152.917 78.7191 148.373 77.1556 143.193C75.5728 137.971 73.1171 130.25 71.48 126.985C70.1083 124.251 68.3369 119.711 67.2626 116.868C67.4021 116.812 67.5377 116.747 67.6686 116.673C67.6686 116.673 67.6431 116.545 67.6015 116.312L67.6686 116.277C67.6686 116.277 66.0699 108.053 65.9996 102.208C65.9996 102.105 65.9996 101.999 65.9996 101.888C65.9996 101.824 65.9996 101.76 65.9996 101.699C67.189 101.427 67.9436 101.322 67.9436 101.322L67.966 101.066L67.8285 101.095L68.4904 93.52C68.4904 93.52 70.9205 88.3497 69.0595 86.1978C68.4938 85.5685 68.116 84.793 67.9692 83.9596C67.6495 81.9803 67.9692 78.6773 72.3018 75.9339C78.9717 71.7036 81.5745 68.2599 81.5745 68.2599C81.5745 68.2599 81.6896 65.7914 77.6064 64.5892ZM64.3592 69.8459V66.3446C65.5967 66.2839 66.8597 66.4278 68.1035 66.3446C68.7141 66.302 69.3191 66.2002 69.9101 66.0409L70.2106 66.2487C68.3909 67.6484 66.4298 68.854 64.3592 69.8459ZM45.4461 124.728C45.9353 125.066 46.4277 125.418 46.9106 125.773C47.2111 127.5 47.4765 128.718 47.4957 128.804C46.9439 127.383 46.2576 126.018 45.4461 124.728Z" fill="url(#paint2_linear)"/>
<path d="M56.017 121.85L55.7292 123.413L55.5086 124.609L55.1057 126.796L51.1984 129.53C51.1984 129.53 50.8467 129.23 50.2647 128.753C48.666 127.436 45.299 124.763 42.8274 123.317C42.1922 122.912 41.5049 122.595 40.7842 122.374L56.017 121.85Z" fill="#FFBDC6"/>
<path opacity="0.1" d="M56.017 121.85L55.7292 123.413C54.868 123.461 54.004 123.417 53.1521 123.282L44.036 123.413C43.6044 123.388 43.2015 123.353 42.8242 123.314C42.189 122.909 41.5017 122.591 40.781 122.371L56.017 121.85Z" fill="black"/>
<path d="M53.1521 123.026C53.1521 123.026 57.7117 123.807 57.9707 121.853C58.2297 119.899 55.6269 118.87 53.4175 118.723C51.208 118.576 37.9161 119.509 37.9161 119.509C37.9161 119.509 35.5723 122.633 44.036 123.154L53.1521 123.026Z" fill="#7679B4"/>
<path opacity="0.1" d="M56.017 121.85L55.7292 123.413L55.5086 124.609L55.1057 126.796L51.1984 129.53C51.1984 129.53 50.8467 129.23 50.2647 128.753C48.666 127.436 45.299 124.763 42.8274 123.317C42.1922 122.912 41.5049 122.595 40.7842 122.374L56.017 121.85Z" fill="black"/>
<path opacity="0.1" d="M56.017 121.85L55.7292 123.413C54.868 123.461 54.004 123.417 53.1521 123.282L44.036 123.413C43.6044 123.388 43.2015 123.353 42.8242 123.314C42.189 122.909 41.5017 122.591 40.781 122.371L56.017 121.85Z" fill="black"/>
<path opacity="0.1" d="M53.1521 123.026C53.1521 123.026 57.7117 123.807 57.9707 121.853C58.2297 119.899 55.6269 118.87 53.4175 118.723C51.208 118.576 37.9161 119.509 37.9161 119.509C37.9161 119.509 35.5723 122.633 44.036 123.154L53.1521 123.026Z" fill="black"/>
<path d="M63.1122 58.8177H39.2814V87.0771H63.1122V58.8177Z" fill="#A66477"/>
<path opacity="0.1" d="M63.1122 58.8177H39.2814V87.0771H63.1122V58.8177Z" fill="black"/>
<path d="M11.3481 107.199C10.9549 107.298 10.4561 107.675 9.89649 108.225C7.48879 110.604 4.05469 116.184 4.05469 116.184C-0.345051 110.946 4.52472 106.806 6.61268 105.383C7.11788 105.037 7.45681 104.852 7.45681 104.852L11.3481 107.199Z" fill="#FFBDC6"/>
<path d="M55.758 67.7387C55.758 67.7387 56.9315 75.9435 60.9667 77.8971C65.0019 79.8508 55.758 83.4959 55.758 83.4959L43.1248 78.8084C43.1248 78.8084 50.2871 76.4647 48.8547 69.5613L55.758 67.7387Z" fill="#FFBDC6"/>
<path d="M42.2263 117.095L41.9385 118.659L41.7179 119.854L41.315 122.042L37.4076 124.775C37.4076 124.775 37.0559 124.475 36.474 123.998C34.8752 122.681 31.5083 120.008 29.0366 118.563C28.4015 118.157 27.7141 117.84 26.9934 117.619L42.2263 117.095Z" fill="#FFBDC6"/>
<path opacity="0.1" d="M42.2263 117.095L41.9385 118.659C41.0772 118.707 40.2133 118.663 39.3613 118.528L30.2453 118.659C29.8136 118.633 29.4108 118.598 29.0334 118.56C28.3983 118.154 27.7109 117.837 26.9903 117.616L42.2263 117.095Z" fill="black"/>
<path d="M39.3485 118.269C39.3485 118.269 43.9081 119.049 44.1671 117.095C44.4261 115.141 41.8234 114.099 39.6075 113.971C37.3917 113.843 24.1093 114.751 24.1093 114.751C24.1093 114.751 21.7656 117.875 30.2293 118.396L39.3485 118.269Z" fill="#7679B4"/>
<path opacity="0.1" d="M41.7051 119.858L41.3022 122.045L37.3949 124.779C37.3949 124.779 37.0431 124.478 36.4612 124.002L41.6283 119.765L41.7051 119.858Z" fill="black"/>
<path d="M67.4864 149.671C67.3073 149.584 67.1261 149.491 66.9428 149.393L66.4664 148.785L60.1737 140.792V140.932C60.1322 142.259 59.6781 152.843 56.1417 153.818C52.3655 154.861 47.8059 155.12 45.7243 148.088C43.6427 141.057 39.8633 125.69 35.956 124.779L41.7498 120.024C41.7498 120.024 45.5868 124.5 47.1536 128.811C47.096 128.536 44.4453 116.158 46.6324 113.971H65.6446C65.6446 113.971 68.5735 122.329 70.5944 126.473C72.1611 129.69 74.5113 137.294 76.0301 142.438C77.5329 147.529 72.2826 152.005 67.4864 149.671Z" fill="#7679B4"/>
<path opacity="0.1" d="M66.9556 116.312C64.0235 118.048 51.1313 117.341 46.9298 117.06L45.7883 116.977C45.6636 116.977 45.8074 116.906 45.8074 116.906L45.9258 115.723L49.0497 107.781L65.7853 98.086C65.4464 99.106 65.3313 100.67 65.3601 102.463C65.4432 108.212 66.9556 116.312 66.9556 116.312Z" fill="black"/>
<path d="M66.9556 115.925C64.0235 117.661 51.1313 116.954 46.9298 116.673L45.7883 116.59H45.5996L45.8074 116.536L46.837 116.264L49.0497 107.407L65.7853 97.7055C65.4464 98.7255 65.3313 100.289 65.3601 102.083C65.4432 107.822 66.9556 115.925 66.9556 115.925Z" fill="#F2F1F2"/>
<path opacity="0.1" d="M65.3601 102.07C61.9579 102.853 54.4694 105.159 51.5917 110.703C49.6732 114.406 48.0745 115.995 46.933 116.66L45.7915 116.577L45.8106 116.507L46.8402 116.235L49.0529 107.378L65.7885 97.6768C65.4432 98.7255 65.3313 100.276 65.3601 102.07Z" fill="black"/>
<path opacity="0.1" d="M7.44083 104.855L11.3482 107.199C10.9549 107.298 10.4561 107.675 9.8965 108.225C9.57675 107.266 7.52397 105.949 6.59669 105.386C7.1019 105.041 7.44083 104.855 7.44083 104.855Z" fill="black"/>
<path opacity="0.1" d="M45.104 116.74C45.0604 116.764 45.0102 116.774 44.9607 116.768C44.9112 116.761 44.8651 116.739 44.829 116.705C44.9184 116.73 45.0111 116.742 45.104 116.74Z" fill="black"/>
<path d="M53.9323 77.3759C53.9323 77.3759 50.415 77.766 47.9402 75.1633C47.9402 75.1633 37.5228 78.1593 34.0055 84.9316C30.4883 91.7039 6.52635 104.986 6.52635 104.986C6.52635 104.986 10.6831 107.33 10.3026 108.503L26.0598 99.3874C26.0598 99.3874 31.6586 95.349 33.2222 94.4377C34.7857 93.5264 43.3806 87.9276 45.2031 103.164C47.0257 118.4 45.2031 116.593 45.2031 116.593C45.2031 116.593 47.8091 117.504 51.5981 110.198C55.3871 102.892 67.0963 101.213 67.0963 101.213L67.7358 93.5392C67.7358 93.5392 70.0604 88.4488 68.2794 86.3257C67.7363 85.701 67.3756 84.9387 67.237 84.1226C66.9396 82.1722 67.237 78.9203 71.3937 76.2184C77.7887 72.0617 80.2508 68.666 80.2508 68.666C80.2508 68.666 80.3819 66.1911 76.4745 65.0209C72.5672 63.8506 56.6789 57.4684 56.6789 57.4684L56.1577 59.6811L68.6599 68.5381C68.6599 68.5381 62.4088 73.6157 57.4687 73.4878C57.4495 73.4654 58.3608 77.2448 53.9323 77.3759Z" fill="#565388"/>
<path opacity="0.1" d="M56.3464 71.3103C56.0384 70.261 55.7981 69.1929 55.6269 68.1128L48.7236 69.9482C49.0258 71.2655 48.9717 72.6395 48.5669 73.929C49.9777 74.3054 51.4682 74.2575 52.852 73.7911C54.2357 73.3247 55.4512 72.4607 56.3464 71.3071V71.3103Z" fill="black"/>
<path d="M50.6133 73.7947C54.7137 73.7947 58.0378 70.4707 58.0378 66.3702C58.0378 62.2697 54.7137 58.9456 50.6133 58.9456C46.5128 58.9456 43.1887 62.2697 43.1887 66.3702C43.1887 70.4707 46.5128 73.7947 50.6133 73.7947Z" fill="#FFBDC6"/>
<path opacity="0.1" d="M54.559 49.4843C56.6181 49.7177 58.5782 50.6034 60.6054 51.083C61.1119 51.2419 61.6516 51.2628 62.169 51.1438C62.9556 50.9008 63.5951 50.0758 64.4072 50.1014C64.9092 50.1014 65.3665 50.4595 65.7693 50.7888C66.4368 51.2952 67.0643 51.8522 67.6463 52.4547C69.0436 53.9735 69.9133 56.0199 71.1891 57.6698C72.4649 59.3197 74.4761 60.6051 76.2891 59.8473C75.058 64.6436 71.0164 68.3111 66.6487 68.6084C64.906 68.7267 63.1314 68.3654 61.4336 68.877C61.0128 69.0486 60.5688 69.1563 60.1162 69.1968C59.157 69.1968 58.364 68.3047 57.7565 67.4382C56.3368 65.3982 55.1985 63.0832 53.5997 61.2254C53.0721 60.6115 52.4486 60.0264 51.7036 59.9145C50.9586 59.8026 50.2711 60.1575 49.6061 60.5028C48.5093 61.072 47.387 61.6603 46.5365 62.6323C45.6859 63.6044 45.1488 65.0592 45.5005 66.3766C45.6891 67.0864 46.124 67.7259 46.14 68.4709C46.14 69.654 45.1104 70.5205 44.9026 71.6684C44.8568 72.153 44.8397 72.6399 44.8514 73.1265C44.7587 74.706 43.7291 76.0042 42.6483 76.9922C42.2295 77.3791 41.7626 77.7916 41.6411 78.3895C41.558 78.7956 41.6411 79.2273 41.5868 79.6398C41.4301 80.6661 40.4069 81.1841 39.502 81.3184C38.4452 81.4733 37.3662 81.3453 36.3749 80.9475C37.6539 80.3496 38.4181 78.6453 38.1239 77.1105C37.721 74.997 35.5979 73.4814 35.7769 71.3263C35.8771 70.6663 36.0754 70.0251 36.3653 69.4238C36.8286 68.2611 37.1652 67.0519 37.3693 65.817C37.5785 64.8666 37.5577 63.88 37.3085 62.9393C37.0367 62.1111 36.4836 61.4525 36.0104 60.7522C35.3695 59.8002 34.8637 58.764 34.5075 57.673C34.3785 57.3506 34.3291 57.0018 34.3637 56.6562C34.4668 56.2486 34.6895 55.8811 35.0032 55.6011C36.167 54.3828 37.4141 53.1134 38.9616 52.7617C39.7011 52.6385 40.4531 52.6095 41.1999 52.6754C42.5036 52.7169 43.8086 52.6613 45.104 52.5091C46.172 52.3844 47.9817 52.4004 48.8834 51.7033C49.7244 51.0638 50.2008 50.2485 51.24 49.8392C52.3006 49.4509 53.4403 49.329 54.559 49.4843Z" fill="black"/>
<path opacity="0.1" d="M58.6869 126.147C58.6869 126.147 62.9843 134.611 61.683 137.217L58.6869 126.147Z" fill="black"/>
<path opacity="0.1" d="M66.4792 148.785L60.1865 140.792V140.932C60.1865 140.932 59.822 138.349 61.0211 139.218C63.6462 141.118 67.8477 144.232 67.9372 144.769C68.0268 145.307 67.0867 147.462 66.4792 148.785Z" fill="black"/>
<g opacity="0.1">
<path opacity="0.1" d="M57.5742 73.4654C57.5742 73.4654 58.105 75.6653 56.3879 76.7652C59.0323 76.3112 59.1474 74.2552 59.0674 73.3599C58.5739 73.4398 58.0741 73.4751 57.5742 73.4654Z" fill="black"/>
<path opacity="0.1" d="M8.09311 104.465C8.09311 104.465 32.0551 91.1827 35.5723 84.4104C38.0951 79.5503 44.1735 76.6373 47.403 75.3775C45.0464 76.1673 37.1167 79.1953 34.1366 84.9316C30.6194 91.7039 6.65744 104.986 6.65744 104.986L8.09311 104.465Z" fill="black"/>
<path opacity="0.1" d="M62.2361 72.4326C66.3129 71.1536 70.2106 67.9977 70.2106 67.9977L57.7085 59.1407L57.993 57.9256L56.7972 57.446L56.276 59.6587L68.7782 68.5157C66.7719 70.0928 64.5737 71.4089 62.2361 72.4326Z" fill="black"/>
<path opacity="0.1" d="M62.3161 102.444C63.9135 101.899 65.5529 101.485 67.2178 101.207L67.2402 100.954C65.5627 101.323 63.9164 101.821 62.3161 102.444Z" fill="black"/>
<path opacity="0.1" d="M47.1632 116.088H47.0481C47.0045 116.112 46.9543 116.122 46.9048 116.116C46.8553 116.109 46.8092 116.087 46.7731 116.053C46.8626 116.078 46.9552 116.09 47.0481 116.088C47.4765 115.838 48.1192 113.894 46.7731 102.639C45.3342 90.6231 39.6875 91.5664 36.5955 92.9477C39.7546 92.078 44.1032 92.8294 45.3406 103.16C46.6868 114.416 46.0441 116.363 45.6156 116.609C46.171 116.588 46.7085 116.407 47.1632 116.088Z" fill="black"/>
<path opacity="0.1" d="M45.6156 116.612C45.5227 116.614 45.4301 116.602 45.3406 116.577C45.3767 116.612 45.4228 116.634 45.4723 116.64C45.5218 116.646 45.572 116.637 45.6156 116.612Z" fill="black"/>
</g>
<path d="M54.559 49.2317C56.6181 49.4651 58.5782 50.3508 60.6054 50.8304C61.1119 50.9893 61.6516 51.0102 62.169 50.8912C62.9556 50.6482 63.5951 49.8232 64.4072 49.8488C64.9092 49.8488 65.3665 50.2069 65.7693 50.5362C66.4368 51.0426 67.0643 51.5995 67.6463 52.2021C69.0436 53.7209 69.9133 55.7673 71.1891 57.4172C72.4649 59.0671 74.4761 60.3525 76.2891 59.5947C75.058 64.3909 71.0164 68.0585 66.6487 68.3558C64.906 68.4741 63.1314 68.1128 61.4336 68.6244C61.0128 68.7959 60.5688 68.9037 60.1162 68.9442C59.157 68.9442 58.364 68.0521 57.7565 67.1855C56.3368 65.1455 55.1985 62.8306 53.5997 60.9728C53.0721 60.3589 52.4486 59.7738 51.7036 59.6619C50.9586 59.5499 50.2711 59.9049 49.6061 60.2502C48.5093 60.8194 47.387 61.4077 46.5365 62.3797C45.6859 63.3518 45.1488 64.8066 45.5005 66.124C45.6891 66.8338 46.124 67.4733 46.14 68.2183C46.14 69.4014 45.1104 70.2679 44.9026 71.4158C44.8568 71.9004 44.8397 72.3873 44.8514 72.8739C44.7587 74.4534 43.7291 75.7516 42.6483 76.7396C42.2295 77.1265 41.7626 77.539 41.6411 78.1369C41.558 78.543 41.6411 78.9747 41.5868 79.3871C41.4301 80.4135 40.4069 80.9315 39.502 81.0658C38.4452 81.2207 37.3662 81.0927 36.3749 80.6949C37.6539 80.097 38.4181 78.3927 38.1239 76.8579C37.721 74.7444 35.5979 73.2288 35.7769 71.0737C35.8771 70.4137 36.0754 69.7725 36.3653 69.1712C36.8286 68.0085 37.1652 66.7993 37.3693 65.5644C37.5785 64.614 37.5577 63.6274 37.3085 62.6867C37.0367 61.8585 36.4836 61.1999 36.0104 60.4996C35.3695 59.5476 34.8637 58.5114 34.5075 57.4204C34.3785 57.098 34.3291 56.7492 34.3637 56.4036C34.4668 55.996 34.6895 55.6285 35.0032 55.3485C36.167 54.1302 37.4141 52.8608 38.9616 52.5091C39.7011 52.3859 40.4531 52.3569 41.1999 52.4228C42.5036 52.4642 43.8086 52.4087 45.104 52.2565C46.172 52.1318 47.9817 52.1478 48.8834 51.4507C49.7244 50.8112 50.2008 49.9959 51.24 49.5866C52.3006 49.1983 53.4403 49.0764 54.559 49.2317Z" fill="#A66477"/>
<path d="M266.562 32.5664C266.562 32.5248 266.562 32.4864 266.562 32.4481C266.562 32.4097 266.562 32.3649 266.543 32.3266H266.491C266.491 32.2402 266.491 32.1539 266.491 32.0612C266.364 29.0971 262.264 22.7885 260.621 24.6302C259.182 26.2482 261.353 30.3409 262.459 32.1827L262.559 32.349L262.504 32.3138C262.504 32.3138 257.929 45.9606 257.388 46.4914C256.848 47.0222 253.081 57.753 248.115 58.9616C247.134 59.195 246.319 59.4061 245.634 59.6011L245.689 59.4189C246.008 58.3733 246.402 57.3853 246.562 56.2214C246.721 55.0575 246.562 53.6474 245.973 53.0814C245.685 52.8001 245.334 52.7617 245.097 52.314C244.943 51.9214 244.861 51.5045 244.854 51.083L244.432 45.9095L244.726 45.82C246.504 45.2508 248.227 43.9015 248.429 42.0853C248.367 42.1088 248.304 42.1291 248.24 42.146C248.264 42.0404 248.282 41.9337 248.295 41.8263C246.801 42.4146 245.417 40.8671 243.978 40.1732C241.609 39.0125 238.9 40.106 236.454 40.3714C233.682 40.6752 231.051 39.5241 228.218 39.7319C226.676 39.8502 224.963 40.8958 225.046 42.4146C225.094 43.2492 225.685 43.9558 225.928 44.7552C226.542 46.6897 225.177 48.6305 223.981 50.2804C223.194 51.3644 222.44 52.6849 222.305 53.9575C219.552 51.0798 216.576 47.7544 216.23 46.5042L208.265 32.8573C208.265 32.8573 208.077 33.0588 207.773 33.3562C207.725 33.2091 207.667 33.0364 207.603 32.8637C206.587 30.0148 203.709 23.1114 200.061 24.3776C196.412 25.6438 201.573 32.7199 203.818 35.54L204.137 35.9301C203.949 35.9764 203.752 35.9675 203.568 35.9046L212.451 51.1406C212.451 51.1406 214.065 54.0567 215.546 54.8496C215.546 54.8496 226.58 68.7619 226.715 71.5437C226.849 74.3255 231.677 81.7469 231.677 81.7469C231.677 81.7469 233.292 93.8046 230.465 95.9245H230.501H230.523H230.558H230.59H230.654H230.696H230.737H230.792H230.836H230.9H230.932C230.798 96.0556 230.66 96.1995 230.52 96.3562C228.425 98.6776 225.749 103.653 229.407 112.113C234.788 124.584 235.597 129.469 235.597 129.469C235.597 129.469 225.365 130 223.351 130.397C221.567 130.748 214.631 130.995 213.045 131.036C212.48 130.377 210.807 128.919 208.55 131.036C205.723 133.687 203.706 142.547 203.706 142.547C203.706 142.547 202.628 149.703 206.264 147.845C206.264 147.845 210.571 141.882 211.779 141.617C212.38 141.485 213.017 140.6 213.503 139.746L213.528 139.762C213.557 139.762 213.675 139.698 213.867 139.621C214.763 139.266 217.228 138.413 219.172 138.838C220.237 139.071 224.803 139.126 229.589 139.113C228.509 141.703 226.571 148.386 226.571 148.386C226.571 148.386 225.762 154.618 228.448 154.362C230.366 154.173 233.308 149.271 234.843 146.474C235.955 145.658 239.143 142.736 241.5 142.956L257.379 136.862C257.379 136.862 261.145 134.742 259.128 127.72C257.529 122.138 252.979 110.71 251.182 106.256L251.128 106.14C250.693 105.063 250.43 104.423 250.43 104.423C249.692 102.39 249.208 100.273 248.988 98.1212C248.972 97.9517 248.96 97.7791 248.947 97.6096C249.169 97.5163 249.379 97.3948 249.57 97.2483C249.57 97.2483 248.09 82.2777 249.57 80.6853L249.596 80.6565V80.6374L249.622 80.6054L249.679 80.5318L249.749 80.4423C249.829 80.3368 249.925 80.2057 250.034 80.0458C250.881 78.8052 252.461 75.9722 252.007 72.6277C251.988 72.4827 251.964 72.3367 251.936 72.1896C251.763 71.2826 251.452 70.4072 251.016 69.5933C250.952 69.2544 250.912 68.9114 250.897 68.5669C250.897 68.3718 250.897 68.1576 250.897 67.9274V67.889C250.897 67.8272 250.897 67.7654 250.897 67.7035V67.6588C250.897 67.5085 250.923 67.339 250.945 67.1983V67.1408C250.945 67.0832 250.955 67.0246 250.974 66.9649V66.8914C250.974 66.8338 251 66.7763 251.012 66.7187V66.658C251.032 66.5812 251.051 66.5045 251.076 66.4277V66.3894C251.096 66.3254 251.117 66.2625 251.14 66.2007L251.169 66.1272L251.233 65.9737L251.265 65.897C251.291 65.8394 251.319 65.7818 251.348 65.7243L251.371 65.6763C251.409 65.606 251.449 65.5367 251.492 65.4685L251.527 65.4141L251.633 65.2639L251.684 65.1967L251.796 65.0624L251.847 65.0049C251.905 64.9441 251.962 64.8834 252.026 64.8258C253.775 63.2271 261.58 51.4443 261.58 51.4443C261.58 51.4443 263.463 48.7936 263.463 47.0734C263.569 47.035 266.898 35.9397 266.562 32.5664ZM245.609 131.608C245.417 129.792 245.225 127.541 245.049 125.213L248.093 129.959C248.093 129.959 247.805 131.404 245.609 131.608Z" fill="url(#paint3_linear)"/>
<path d="M213.87 130.604C213.87 130.604 212.048 127.727 209.311 130.345C206.574 132.964 204.623 141.674 204.623 141.674C204.623 141.674 203.581 148.709 207.098 146.883C207.098 146.883 211.255 141.022 212.438 140.763C213.621 140.504 214.913 137.246 214.913 137.246L213.87 130.604Z" fill="#493545"/>
<path d="M233.404 137.636C233.404 137.636 230.929 136.462 230.149 137.377C229.369 138.291 226.763 147.404 226.763 147.404C226.763 147.404 225.983 153.396 228.585 153.134C231.188 152.872 235.748 143.49 235.748 143.49L233.404 137.636Z" fill="#493545"/>
<path opacity="0.05" d="M233.404 137.636C233.404 137.636 230.929 136.462 230.149 137.377C229.369 138.291 226.763 147.404 226.763 147.404C226.763 147.404 225.983 153.396 228.585 153.134C231.188 152.872 235.748 143.49 235.748 143.49L233.404 137.636Z" fill="black"/>
<path d="M241.999 119.925L247.597 128.651C247.597 128.651 247.207 130.604 243.821 130.214L232.23 137.508C232.23 137.508 231.223 146.387 234.443 145.581C234.964 145.45 238.6 141.674 241.215 141.936L256.586 135.944C256.586 135.944 260.231 133.859 258.277 126.959C256.323 120.059 249.865 104.059 249.865 104.059L239.655 109.77L241.999 119.925Z" fill="#3E3D77"/>
<path opacity="0.05" d="M241.999 119.925L247.597 128.651C247.597 128.651 247.207 130.604 243.821 130.214L232.23 137.508C232.23 137.508 231.223 146.387 234.443 145.581C234.964 145.45 238.6 141.674 241.215 141.936L256.586 135.944C256.586 135.944 260.231 133.859 258.277 126.959C256.323 120.059 249.865 104.059 249.865 104.059L239.655 109.77L241.999 119.925Z" fill="black"/>
<path d="M245.516 132.817C246.296 137.767 241.871 138.157 241.871 138.157C241.871 138.157 221.944 138.547 219.6 138.026C217.257 137.505 214.129 138.937 214.129 138.937C210.091 136.462 213.349 130.342 213.349 130.342C213.349 130.342 221.685 130.083 223.639 129.703C225.592 129.322 235.489 128.782 235.489 128.782C235.489 128.782 234.708 123.963 229.497 111.723C225.957 103.41 228.537 98.5177 230.574 96.2379C231.094 95.6329 231.695 95.1035 232.362 94.6647L248.381 95.4449C248.364 96.2528 248.394 97.061 248.47 97.8654C248.744 100.627 249.462 103.326 250.597 105.859C249.686 105.859 243.825 111.33 243.825 111.33C243.825 111.33 244.733 127.871 245.516 132.817Z" fill="#3E3D77"/>
<path opacity="0.1" d="M214.52 130.863C214.52 130.863 222.855 130.604 224.809 130.224C226.763 129.843 236.659 129.313 236.659 129.313C236.659 129.313 235.879 124.494 230.667 112.254C227.127 103.941 229.708 99.0485 231.744 96.7687C232.264 96.1637 232.866 95.6342 233.532 95.1955L248.375 95.9181C248.375 95.7647 248.375 95.5984 248.375 95.4545L232.355 94.6743C231.689 95.113 231.087 95.6425 230.568 96.2475C228.541 98.5305 225.951 103.419 229.49 111.733C234.715 123.963 235.489 128.782 235.489 128.782C235.489 128.782 225.576 129.303 223.639 129.693C221.701 130.083 213.349 130.333 213.349 130.333C213.349 130.333 210.094 136.456 214.129 138.94C214.129 138.94 214.251 138.883 214.449 138.8C211.767 136.04 214.52 130.863 214.52 130.863Z" fill="black"/>
<path d="M238.35 46.8655H230.277V67.3103H238.35V46.8655Z" fill="#493545"/>
<path opacity="0.1" d="M238.35 46.8655H230.277V67.3103H238.35V46.8655Z" fill="black"/>
<path d="M242.968 43.8663C243.246 43.943 243.559 43.9526 243.748 44.3363C243.865 44.643 243.929 44.9674 243.936 45.2956L244.445 51.6138C244.452 52.0275 244.532 52.4366 244.681 52.8224C244.896 53.2509 245.251 53.3021 245.529 53.577C246.088 54.1334 246.251 55.5275 246.098 56.6626C245.944 57.7977 245.558 58.7698 245.254 59.7962C244.819 61.267 244.531 62.9201 243.92 64.1607C243.31 65.4014 242.2 66.0792 241.484 65.0368C240.768 63.9945 240.864 61.8905 240.729 60.1671C240.506 57.2893 239.383 54.8081 239.306 51.9112C239.243 49.5674 239.872 47.3803 240.266 45.1581C240.547 43.6329 240.563 41.7815 240.972 40.4098C241.314 42.0405 241.967 43.5913 242.968 43.8663Z" fill="#493545"/>
<path opacity="0.1" d="M242.968 43.8663C243.246 43.943 243.559 43.9526 243.748 44.3363C243.865 44.643 243.929 44.9674 243.936 45.2956L244.445 51.6138C244.452 52.0275 244.532 52.4366 244.681 52.8224C244.896 53.2509 245.251 53.3021 245.529 53.577C246.088 54.1334 246.251 55.5275 246.098 56.6626C245.944 57.7977 245.558 58.7698 245.254 59.7962C244.819 61.267 244.531 62.9201 243.92 64.1607C243.31 65.4014 242.2 66.0792 241.484 65.0368C240.768 63.9945 240.864 61.8905 240.729 60.1671C240.506 57.2893 239.383 54.8081 239.306 51.9112C239.243 49.5674 239.872 47.3803 240.266 45.1581C240.547 43.6329 240.563 41.7815 240.972 40.4098C241.314 42.0405 241.967 43.5913 242.968 43.8663Z" fill="black"/>
<path d="M208.79 34.8845L205.666 37.4905C205.666 37.4905 205.295 37.0556 204.742 36.3522C202.571 33.58 197.579 26.6254 201.106 25.3816C204.633 24.1378 207.421 30.9197 208.406 33.7207C208.655 34.4305 208.79 34.8845 208.79 34.8845Z" fill="#C77485"/>
<path d="M265.181 33.9733C263.879 35.9269 262.057 33.9733 262.057 33.9733C262.057 33.9733 261.823 33.6247 261.494 33.062C260.423 31.249 258.322 27.2298 259.713 25.6374C261.312 23.8181 265.273 30.0276 265.395 32.9405C265.432 33.2986 265.357 33.6596 265.181 33.9733Z" fill="#C77485"/>
<path d="M233.142 55.0703C233.142 55.0703 235.748 63.4061 234.964 65.8778C234.181 68.3494 240.566 71.2272 240.566 71.2272H247.86C247.86 71.2272 250.466 65.8874 249.813 64.3238C249.161 62.7602 243.562 61.5899 243.562 61.5899C243.562 61.5899 240.307 61.59 240.438 52.864L233.142 55.0703Z" fill="#C77485"/>
<path opacity="0.1" d="M208.79 34.8846L205.666 37.4905C205.666 37.4905 205.295 37.0557 204.742 36.3522C205.877 36.1508 207.639 34.4945 208.409 33.7207C208.655 34.4305 208.79 34.8846 208.79 34.8846Z" fill="black"/>
<path opacity="0.1" d="M265.18 33.9733C263.879 35.9269 262.057 33.9733 262.057 33.9733C262.057 33.9733 261.823 33.6248 261.494 33.062L261.535 32.9309C262.379 33.5352 265.005 33.0204 265.395 32.9309C265.434 33.2922 265.359 33.6569 265.18 33.9733Z" fill="black"/>
<path opacity="0.1" d="M248.464 97.8622C244.435 99.7008 231.345 96.4265 230.558 96.2315C231.078 95.6266 231.679 95.0971 232.346 94.6583L248.365 95.4385C248.351 96.2477 248.384 97.0569 248.464 97.8622Z" fill="black"/>
<path d="M234.836 62.2327C234.836 62.2327 231.712 63.275 227.284 59.2366C227.284 59.2366 217.372 49.4683 216.732 47.1245L209.058 33.6951C209.058 33.6951 205.803 37.2123 204.499 36.6912L213.093 51.6682C213.093 51.6682 214.657 54.5459 216.09 55.3133C216.09 55.3133 226.769 68.989 226.897 71.7228C227.025 74.4566 231.709 81.7789 231.709 81.7789C231.709 81.7789 233.273 93.6288 230.536 95.7135C230.536 95.7135 245.772 99.6209 249.027 97.0149C249.027 97.0149 247.594 82.3065 249.027 80.7365C249.027 80.7365 253.455 75.5278 250.459 69.7979C250.459 69.7979 249.82 66.674 251.502 65.1104C253.184 63.5468 260.749 51.956 260.749 51.956C260.749 51.956 262.571 49.35 262.571 47.6585C262.571 47.6585 265.957 36.1987 265.449 33.2027C265.449 33.2027 262.453 33.8422 261.542 33.2027C261.542 33.2027 257.113 46.6321 256.592 47.1373C256.071 47.6425 252.435 58.207 247.607 59.3805C242.779 60.554 242.008 61.072 242.008 61.072C242.008 61.072 251.383 66.933 246.827 69.5357C242.271 72.1385 234.836 62.2327 234.836 62.2327Z" fill="#FFAAC4"/>
<path opacity="0.1" d="M240.755 57.0751C240.6 55.8483 240.537 54.6117 240.566 53.3756L233.273 55.5883C233.465 56.0741 233.618 56.5745 233.73 57.0847C234.565 57.4524 235.69 58.3221 236.659 58.3221C238.124 58.37 239.565 57.9316 240.755 57.0751Z" fill="black"/>
<path d="M236.528 57.9352C240.268 57.9352 243.3 54.9032 243.3 51.163C243.3 47.4227 240.268 44.3907 236.528 44.3907C232.788 44.3907 229.756 47.4227 229.756 51.163C229.756 54.9032 232.788 57.9352 236.528 57.9352Z" fill="#C77485"/>
<path opacity="0.1" d="M228.47 40.7296C226.98 40.8447 225.317 41.8743 225.401 43.3675C225.445 44.1892 226.008 44.8831 226.254 45.6697C226.846 47.5722 225.529 49.4811 224.371 51.1054C223.214 52.7297 222.133 54.8816 223.124 56.6019C223.407 57.016 223.712 57.4142 224.038 57.7945C225.263 59.4476 225.247 61.6795 225.791 63.6651C226.485 66.2054 228.126 68.3833 230.376 69.7511C232.627 71.1189 235.315 71.5728 237.89 71.0193C236.921 69.7821 236.437 68.2332 236.531 66.6644C236.605 65.5261 236.972 64.3366 236.531 63.2846C235.962 61.9321 234.293 61.3981 233.433 60.215C232.573 59.032 232.63 57.3916 233.046 55.9816C233.461 54.5715 234.181 53.2637 234.526 51.8248C234.611 51.405 234.718 50.9899 234.846 50.581C235.447 48.8735 237.244 47.8823 239.003 47.4571C240.761 47.0318 242.609 47.0062 244.327 46.4467C246.044 45.8871 247.713 44.5761 247.911 42.7759C246.466 43.3547 245.126 41.8455 243.732 41.1516C241.436 40.0133 238.817 41.0845 236.451 41.3467C233.756 41.6472 231.198 40.5313 228.47 40.7296Z" fill="black"/>
<path d="M228.339 40.4706C226.849 40.5857 225.186 41.6153 225.269 43.1085C225.314 43.9302 225.877 44.6241 226.123 45.4107C226.715 47.3132 225.397 49.2221 224.24 50.8464C223.082 52.4707 222.002 54.6226 222.993 56.3429C223.275 56.757 223.581 57.1552 223.907 57.5355C225.132 59.1886 225.116 61.4205 225.66 63.4061C226.354 65.9464 227.995 68.1243 230.245 69.4921C232.495 70.86 235.184 71.3138 237.759 70.7603C236.79 69.5231 236.306 67.9742 236.4 66.4054C236.473 65.2671 236.841 64.0776 236.4 63.0256C235.831 61.6731 234.162 61.1391 233.302 59.956C232.441 58.773 232.499 57.1327 232.915 55.7226C233.33 54.3125 234.05 53.0047 234.395 51.5658C234.48 51.146 234.587 50.7309 234.715 50.322C235.316 48.6145 237.113 47.6233 238.872 47.1981C240.63 46.7728 242.478 46.7472 244.195 46.1877C245.912 45.6281 247.581 44.3171 247.78 42.5169C246.334 43.0957 244.995 41.5865 243.601 40.8926C241.305 39.7543 238.686 40.8255 236.32 41.0877C233.631 41.385 231.083 40.2563 228.339 40.4706Z" fill="#493545"/>
<path opacity="0.1" d="M243.236 66.2071C243.236 66.2071 245.948 68.6276 246.482 69.6956L243.236 66.2071Z" fill="black"/>
<path opacity="0.1" d="M249.104 80.663C249.104 80.663 245.717 80.663 244.154 81.053C242.59 81.4431 238.814 81.053 238.814 81.053" fill="black"/>
<g opacity="0.1">
<path opacity="0.1" d="M246.817 69.5261C246.525 69.6932 246.209 69.814 245.88 69.8842C246.73 70.0725 247.619 69.9452 248.381 69.5261C252.941 66.9202 243.562 61.0624 243.562 61.0624H241.999C241.999 61.0624 251.377 66.9234 246.817 69.5261Z" fill="black"/>
<path opacity="0.1" d="M265.471 33.4297C265.471 33.3466 265.452 33.2666 265.44 33.1931C264.904 33.3041 264.363 33.3863 263.818 33.4393C264.368 33.4997 264.923 33.4965 265.471 33.4297Z" fill="black"/>
<path opacity="0.1" d="M232.103 95.7039C234.836 93.6192 233.276 81.7693 233.276 81.7693C233.276 81.7693 228.588 74.4758 228.457 71.742C228.326 69.0081 217.65 55.3325 217.65 55.3325C216.217 54.5523 214.654 51.6873 214.654 51.6873C214.654 51.6873 205.797 37.2315 204.495 36.7103L213.09 51.6873C213.09 51.6873 214.654 54.5651 216.086 55.3325C216.086 55.3325 226.766 69.0081 226.894 71.742C227.022 74.4758 231.709 81.7789 231.709 81.7789C231.709 81.7789 233.273 93.6287 230.536 95.7135C230.536 95.7135 239.901 98.1148 245.516 97.8974C239.888 97.6992 232.103 95.7039 232.103 95.7039Z" fill="black"/>
<path opacity="0.1" d="M234.913 62.335L234.836 62.2359C234.747 62.2622 234.656 62.2825 234.565 62.2966C234.686 62.3126 234.801 62.3254 234.913 62.335Z" fill="black"/>
</g>
<g opacity="0.1">
<path opacity="0.1" d="M265.439 33.1771L265.36 33.1931C265.222 37.1931 262.447 46.5905 262.447 46.5905C262.447 48.282 260.624 50.888 260.624 50.888C260.624 50.888 253.072 62.4788 251.377 64.0424C249.682 65.606 250.335 68.7299 250.335 68.7299L250.351 68.7619C250.299 67.7099 250.427 66.0792 251.505 65.0816C253.196 63.518 260.752 51.9271 260.752 51.9271C260.752 51.9271 262.575 49.3212 262.575 47.6297C262.575 47.6489 265.961 36.1891 265.439 33.1771Z" fill="black"/>
<path opacity="0.1" d="M248.902 79.6845C249.097 80.7908 248.966 79.6206 249.033 80.7269C249.033 80.7269 252.231 76.9762 251.358 72.3399C251.62 76.4838 248.902 79.6845 248.902 79.6845Z" fill="black"/>
</g>
<path opacity="0.1" d="M150.266 211.52C225.789 211.52 287.013 205.639 287.013 198.385C287.013 191.13 225.789 185.249 150.266 185.249C74.7429 185.249 13.5192 191.13 13.5192 198.385C13.5192 205.639 74.7429 211.52 150.266 211.52Z" fill="#7868E6"/>
<path d="M97.2582 185.058C97.2582 185.058 92.6026 169.246 98.1311 157.61C100.482 152.744 101.191 147.246 100.152 141.943C99.6384 139.429 98.8956 136.967 97.9328 134.589" stroke="#535461" stroke-width="2" stroke-miterlimit="10"/>
<path d="M101.38 127.241C101.38 129.178 97.8625 134.796 97.8625 134.796C97.8625 134.796 94.3453 129.178 94.3453 127.241C94.3096 126.758 94.3738 126.274 94.5339 125.817C94.694 125.361 94.9465 124.942 95.2757 124.588C95.6049 124.233 96.0037 123.95 96.4471 123.757C96.8906 123.564 97.3691 123.464 97.8529 123.464C98.3367 123.464 98.8152 123.564 99.2587 123.757C99.7021 123.95 100.101 124.233 100.43 124.588C100.759 124.942 101.012 125.361 101.172 125.817C101.332 126.274 101.396 126.758 101.361 127.241H101.38Z" fill="#7868E6"/>
<path d="M107.17 137.971C106.118 139.599 100.12 142.406 100.12 142.406C100.12 142.406 100.229 135.784 101.281 134.157C101.514 133.734 101.832 133.364 102.214 133.07C102.597 132.776 103.036 132.563 103.504 132.446C103.972 132.328 104.459 132.308 104.935 132.387C105.412 132.466 105.866 132.643 106.272 132.905C106.677 133.167 107.023 133.51 107.29 133.913C107.557 134.315 107.738 134.768 107.823 135.243C107.907 135.718 107.893 136.206 107.78 136.675C107.668 137.144 107.461 137.586 107.17 137.971Z" fill="#7868E6"/>
<path d="M106.918 156.315C105.188 157.188 98.6043 156.584 98.6043 156.584C98.6043 156.584 102.042 150.921 103.771 150.048C104.186 149.799 104.648 149.639 105.127 149.576C105.607 149.514 106.094 149.551 106.559 149.685C107.024 149.819 107.456 150.048 107.828 150.357C108.2 150.666 108.505 151.048 108.722 151.48C108.94 151.912 109.067 152.384 109.094 152.867C109.121 153.35 109.048 153.833 108.88 154.287C108.712 154.74 108.452 155.154 108.116 155.503C107.781 155.851 107.377 156.127 106.931 156.312L106.918 156.315Z" fill="#7868E6"/>
<path d="M103.602 170.148C102.045 171.299 95.4388 171.82 95.4388 171.82C95.4388 171.82 97.8689 165.658 99.4293 164.504C100.18 164.048 101.075 163.889 101.937 164.059C102.799 164.229 103.566 164.716 104.087 165.423C104.608 166.131 104.846 167.008 104.753 167.881C104.661 168.755 104.244 169.562 103.586 170.145L103.602 170.148Z" fill="#7868E6"/>
<path d="M92.7465 142.784C94.1374 144.133 100.612 145.534 100.612 145.534C100.612 145.534 99.0136 139.103 97.6355 137.751C97.3139 137.39 96.9215 137.1 96.4828 136.898C96.0441 136.696 95.5685 136.586 95.0855 136.576C94.6026 136.566 94.1227 136.655 93.6758 136.838C93.2289 137.022 92.8246 137.295 92.488 137.642C92.1514 137.988 91.8898 138.4 91.7195 138.852C91.5492 139.304 91.4738 139.786 91.498 140.269C91.5223 140.751 91.6457 141.224 91.8605 141.656C92.0753 142.089 92.3769 142.473 92.7465 142.784Z" fill="#7868E6"/>
<path d="M89.079 159.014C90.8089 159.887 97.3925 159.283 97.3925 159.283C97.3925 159.283 93.968 153.62 92.2381 152.763C91.4179 152.423 90.4993 152.405 89.6667 152.714C88.834 153.022 88.149 153.635 87.7491 154.428C87.3492 155.221 87.264 156.135 87.5107 156.988C87.7574 157.842 88.3176 158.57 89.079 159.027V159.014Z" fill="#7868E6"/>
<path d="M87.6721 175.277C89.2293 176.428 95.8353 176.949 95.8353 176.949C95.8353 176.949 93.4052 170.787 91.8448 169.633C91.4791 169.309 91.05 169.066 90.5849 168.917C90.1198 168.768 89.6288 168.718 89.1433 168.77C88.6578 168.821 88.1883 168.974 87.7647 169.216C87.3412 169.459 86.9728 169.788 86.6832 170.181C86.3935 170.574 86.1888 171.023 86.0822 171.499C85.9756 171.976 85.9694 172.469 86.0639 172.948C86.1584 173.427 86.3517 173.882 86.6313 174.282C86.9109 174.682 87.2708 175.02 87.6881 175.273L87.6721 175.277Z" fill="#7868E6"/>
<path opacity="0.1" d="M101.38 127.241C101.38 129.178 97.8625 134.796 97.8625 134.796C97.8625 134.796 94.3453 129.178 94.3453 127.241C94.3096 126.758 94.3738 126.274 94.5339 125.817C94.694 125.361 94.9465 124.942 95.2757 124.588C95.6049 124.233 96.0037 123.95 96.4471 123.757C96.8906 123.564 97.3691 123.464 97.8529 123.464C98.3367 123.464 98.8152 123.564 99.2587 123.757C99.7021 123.95 100.101 124.233 100.43 124.588C100.759 124.942 101.012 125.361 101.172 125.817C101.332 126.274 101.396 126.758 101.361 127.241H101.38Z" fill="#7868E6"/>
<path opacity="0.1" d="M107.17 137.971C106.118 139.599 100.12 142.406 100.12 142.406C100.12 142.406 100.229 135.784 101.281 134.157C101.514 133.734 101.832 133.364 102.214 133.07C102.597 132.776 103.036 132.563 103.504 132.446C103.972 132.328 104.459 132.308 104.935 132.387C105.412 132.466 105.866 132.643 106.272 132.905C106.677 133.167 107.023 133.51 107.29 133.913C107.557 134.315 107.738 134.768 107.823 135.243C107.907 135.718 107.893 136.206 107.78 136.675C107.668 137.144 107.461 137.586 107.17 137.971Z" fill="#7868E6"/>
<path opacity="0.1" d="M106.918 156.315C105.188 157.188 98.6043 156.584 98.6043 156.584C98.6043 156.584 102.042 150.921 103.771 150.048C104.186 149.799 104.648 149.639 105.127 149.576C105.607 149.514 106.094 149.551 106.559 149.685C107.024 149.819 107.456 150.048 107.828 150.357C108.2 150.666 108.505 151.048 108.722 151.48C108.94 151.912 109.067 152.384 109.094 152.867C109.121 153.35 109.048 153.833 108.88 154.287C108.712 154.74 108.452 155.154 108.116 155.503C107.781 155.851 107.377 156.127 106.931 156.312L106.918 156.315Z" fill="#7868E6"/>
<path opacity="0.1" d="M103.602 170.148C102.045 171.299 95.4388 171.82 95.4388 171.82C95.4388 171.82 97.8689 165.658 99.4293 164.504C100.18 164.048 101.075 163.889 101.937 164.059C102.799 164.229 103.566 164.716 104.087 165.423C104.608 166.131 104.846 167.008 104.753 167.881C104.661 168.755 104.244 169.562 103.586 170.145L103.602 170.148Z" fill="#7868E6"/>
<path opacity="0.1" d="M92.7465 142.784C94.1374 144.133 100.612 145.534 100.612 145.534C100.612 145.534 99.0136 139.103 97.6355 137.751C97.3139 137.39 96.9215 137.1 96.4828 136.898C96.0441 136.696 95.5685 136.586 95.0855 136.576C94.6026 136.566 94.1227 136.655 93.6758 136.838C93.2289 137.022 92.8246 137.295 92.488 137.642C92.1514 137.988 91.8898 138.4 91.7195 138.852C91.5492 139.304 91.4738 139.786 91.498 140.269C91.5223 140.751 91.6457 141.224 91.8605 141.656C92.0753 142.089 92.3769 142.473 92.7465 142.784Z" fill="#7868E6"/>
<path opacity="0.1" d="M89.079 159.014C90.8089 159.887 97.3925 159.283 97.3925 159.283C97.3925 159.283 93.968 153.62 92.2381 152.763C91.4179 152.423 90.4993 152.405 89.6667 152.714C88.834 153.022 88.149 153.635 87.7491 154.428C87.3492 155.221 87.264 156.135 87.5107 156.988C87.7574 157.842 88.3176 158.57 89.079 159.027V159.014Z" fill="#7868E6"/>
<path opacity="0.1" d="M87.6721 175.277C89.2293 176.428 95.8353 176.949 95.8353 176.949C95.8353 176.949 93.4052 170.787 91.8448 169.633C91.4791 169.309 91.05 169.066 90.5849 168.917C90.1198 168.768 89.6288 168.718 89.1433 168.77C88.6578 168.821 88.1883 168.974 87.7647 169.216C87.3412 169.459 86.9728 169.788 86.6832 170.181C86.3935 170.574 86.1888 171.023 86.0822 171.499C85.9756 171.976 85.9694 172.469 86.0639 172.948C86.1584 173.427 86.3517 173.882 86.6313 174.282C86.9109 174.682 87.2708 175.02 87.6881 175.273L87.6721 175.277Z" fill="#7868E6"/>
<path d="M191.469 185.285C191.469 185.285 186.813 169.473 192.342 157.837C194.693 152.971 195.402 147.473 194.363 142.17C193.849 139.656 193.106 137.194 192.144 134.816" stroke="#535461" stroke-width="2" stroke-miterlimit="10"/>
<path d="M195.584 127.465C195.584 129.402 192.067 135.02 192.067 135.02C192.067 135.02 188.55 129.402 188.55 127.465C188.615 126.579 189.013 125.751 189.664 125.147C190.314 124.543 191.169 124.207 192.057 124.207C192.945 124.207 193.8 124.543 194.451 125.147C195.101 125.751 195.499 126.579 195.565 127.465H195.584Z" fill="#7868E6"/>
<path d="M201.384 138.195C200.332 139.823 194.334 142.63 194.334 142.63C194.334 142.63 194.443 136.008 195.495 134.381C195.728 133.958 196.046 133.588 196.428 133.294C196.811 132.999 197.25 132.787 197.718 132.669C198.186 132.552 198.673 132.532 199.149 132.611C199.626 132.69 200.08 132.867 200.485 133.129C200.891 133.391 201.237 133.734 201.504 134.136C201.771 134.539 201.952 134.991 202.037 135.467C202.121 135.942 202.107 136.429 201.994 136.899C201.882 137.368 201.674 137.81 201.384 138.195Z" fill="#7868E6"/>
<path d="M201.141 156.539C199.411 157.412 192.828 156.808 192.828 156.808C192.828 156.808 196.265 151.145 197.995 150.272C198.41 150.021 198.873 149.858 199.354 149.794C199.835 149.731 200.324 149.767 200.79 149.902C201.257 150.036 201.69 150.265 202.063 150.575C202.437 150.885 202.742 151.269 202.959 151.703C203.177 152.137 203.303 152.611 203.328 153.095C203.354 153.58 203.279 154.065 203.108 154.519C202.938 154.973 202.675 155.387 202.336 155.735C201.998 156.083 201.591 156.356 201.141 156.539Z" fill="#7868E6"/>
<path d="M197.813 170.372C196.256 171.523 189.65 172.044 189.65 172.044C189.65 172.044 192.08 165.882 193.64 164.728C194.391 164.272 195.285 164.113 196.147 164.283C197.009 164.453 197.777 164.94 198.298 165.647C198.819 166.355 199.057 167.231 198.964 168.105C198.871 168.979 198.455 169.786 197.797 170.368L197.813 170.372Z" fill="#7868E6"/>
<path d="M186.964 143.007C188.355 144.357 194.829 145.757 194.829 145.757C194.829 145.757 193.231 139.327 191.853 137.975C191.531 137.614 191.139 137.324 190.7 137.122C190.261 136.92 189.786 136.81 189.303 136.8C188.82 136.789 188.34 136.879 187.893 137.062C187.446 137.245 187.042 137.519 186.705 137.865C186.368 138.212 186.107 138.624 185.937 139.076C185.766 139.528 185.691 140.01 185.715 140.493C185.739 140.975 185.863 141.447 186.078 141.88C186.292 142.313 186.594 142.697 186.964 143.007Z" fill="#7868E6"/>
<path d="M183.29 159.238C185.02 160.111 191.603 159.507 191.603 159.507C191.603 159.507 188.166 153.844 186.436 152.971C185.616 152.63 184.697 152.613 183.865 152.921C183.032 153.23 182.347 153.843 181.947 154.635C181.547 155.428 181.462 156.343 181.709 157.196C181.955 158.049 182.516 158.778 183.277 159.235L183.29 159.238Z" fill="#7868E6"/>
<path d="M181.886 175.5C183.443 176.651 190.049 177.173 190.049 177.173C190.049 177.173 187.619 171.011 186.059 169.857C185.308 169.401 184.413 169.242 183.551 169.412C182.689 169.582 181.922 170.069 181.401 170.776C180.88 171.483 180.642 172.36 180.735 173.234C180.827 174.108 181.244 174.915 181.902 175.497L181.886 175.5Z" fill="#7868E6"/>
<path opacity="0.1" d="M195.584 127.465C195.584 129.402 192.067 135.02 192.067 135.02C192.067 135.02 188.55 129.402 188.55 127.465C188.615 126.579 189.013 125.751 189.664 125.147C190.314 124.543 191.169 124.207 192.057 124.207C192.945 124.207 193.8 124.543 194.451 125.147C195.101 125.751 195.499 126.579 195.565 127.465H195.584Z" fill="#7868E6"/>
<path opacity="0.1" d="M201.384 138.195C200.332 139.823 194.334 142.63 194.334 142.63C194.334 142.63 194.443 136.008 195.495 134.381C195.728 133.958 196.046 133.588 196.428 133.294C196.811 132.999 197.25 132.787 197.718 132.669C198.186 132.552 198.673 132.532 199.149 132.611C199.626 132.69 200.08 132.867 200.485 133.129C200.891 133.391 201.237 133.734 201.504 134.136C201.771 134.539 201.952 134.991 202.037 135.467C202.121 135.942 202.107 136.429 201.994 136.899C201.882 137.368 201.674 137.81 201.384 138.195Z" fill="#7868E6"/>
<path opacity="0.1" d="M201.141 156.539C199.411 157.412 192.828 156.808 192.828 156.808C192.828 156.808 196.265 151.145 197.995 150.272C198.41 150.021 198.873 149.858 199.354 149.794C199.835 149.731 200.324 149.767 200.79 149.902C201.257 150.036 201.69 150.265 202.063 150.575C202.437 150.885 202.742 151.269 202.959 151.703C203.177 152.137 203.303 152.611 203.328 153.095C203.354 153.58 203.279 154.065 203.108 154.519C202.938 154.973 202.675 155.387 202.336 155.735C201.998 156.083 201.591 156.356 201.141 156.539Z" fill="#7868E6"/>
<path opacity="0.1" d="M197.813 170.372C196.256 171.523 189.65 172.044 189.65 172.044C189.65 172.044 192.08 165.882 193.64 164.728C194.391 164.272 195.285 164.113 196.147 164.283C197.009 164.453 197.777 164.94 198.298 165.647C198.819 166.355 199.057 167.231 198.964 168.105C198.871 168.979 198.455 169.786 197.797 170.368L197.813 170.372Z" fill="#7868E6"/>
<path opacity="0.1" d="M186.964 143.007C188.355 144.357 194.829 145.757 194.829 145.757C194.829 145.757 193.231 139.327 191.853 137.975C191.531 137.614 191.139 137.324 190.7 137.122C190.261 136.92 189.786 136.81 189.303 136.8C188.82 136.789 188.34 136.879 187.893 137.062C187.446 137.245 187.042 137.519 186.705 137.865C186.368 138.212 186.107 138.624 185.937 139.076C185.766 139.528 185.691 140.01 185.715 140.493C185.739 140.975 185.863 141.447 186.078 141.88C186.292 142.313 186.594 142.697 186.964 143.007Z" fill="#7868E6"/>
<path opacity="0.1" d="M183.29 159.238C185.02 160.111 191.603 159.507 191.603 159.507C191.603 159.507 188.166 153.844 186.436 152.971C185.616 152.63 184.697 152.613 183.865 152.921C183.032 153.23 182.347 153.843 181.947 154.635C181.547 155.428 181.462 156.343 181.709 157.196C181.955 158.049 182.516 158.778 183.277 159.235L183.29 159.238Z" fill="#7868E6"/>
<path opacity="0.1" d="M181.886 175.5C183.443 176.651 190.049 177.173 190.049 177.173C190.049 177.173 187.619 171.011 186.059 169.857C185.308 169.401 184.413 169.242 183.551 169.412C182.689 169.582 181.922 170.069 181.401 170.776C180.88 171.483 180.642 172.36 180.735 173.234C180.827 174.108 181.244 174.915 181.902 175.497L181.886 175.5Z" fill="#7868E6"/>
<path opacity="0.5" d="M214.251 4.89535H212.243C212.433 4.90442 212.623 4.8748 212.802 4.80827C212.98 4.74174 213.143 4.6397 213.281 4.50831C213.419 4.37692 213.528 4.21893 213.603 4.0439C213.678 3.86888 213.717 3.68045 213.717 3.49005C213.717 3.29965 213.678 3.11123 213.603 2.93621C213.528 2.76118 213.419 2.60319 213.281 2.4718C213.143 2.34041 212.98 2.23836 212.802 2.17184C212.623 2.10531 212.433 2.07568 212.243 2.08476H195.961C195.6 2.10199 195.26 2.25757 195.01 2.51922C194.761 2.78088 194.621 3.12853 194.621 3.49005C194.621 3.85158 194.761 4.19922 195.01 4.46088C195.26 4.72254 195.6 4.87812 195.961 4.89535H197.969C197.608 4.91258 197.268 5.06816 197.018 5.32982C196.769 5.59147 196.63 5.93912 196.63 6.30064C196.63 6.66217 196.769 7.00981 197.018 7.27147C197.268 7.53312 197.608 7.68871 197.969 7.70594H195.159C194.969 7.69686 194.779 7.72649 194.6 7.79302C194.422 7.85954 194.259 7.96159 194.121 8.09298C193.983 8.22436 193.873 8.38235 193.798 8.55738C193.723 8.73241 193.685 8.92083 193.685 9.11123C193.685 9.30163 193.723 9.49005 193.798 9.66508C193.873 9.84011 193.983 9.9981 194.121 10.1295C194.259 10.2609 194.422 10.3629 194.6 10.4294C194.779 10.496 194.969 10.5256 195.159 10.5165H211.428C211.618 10.5256 211.808 10.496 211.986 10.4294C212.165 10.3629 212.328 10.2609 212.465 10.1295C212.603 9.9981 212.713 9.84011 212.788 9.66508C212.863 9.49005 212.902 9.30163 212.902 9.11123C212.902 8.92083 212.863 8.73241 212.788 8.55738C212.713 8.38235 212.603 8.22436 212.465 8.09298C212.328 7.96159 212.165 7.85954 211.986 7.79302C211.808 7.72649 211.618 7.69686 211.428 7.70594H214.251C214.612 7.68871 214.953 7.53312 215.202 7.27147C215.452 7.00981 215.591 6.66217 215.591 6.30064C215.591 5.93912 215.452 5.59147 215.202 5.32982C214.953 5.06816 214.612 4.91258 214.251 4.89535Z" fill="#DEE3F3"/>
<path opacity="0.5" d="M120.175 13.0937H118.646C118.792 13.1016 118.937 13.0799 119.074 13.0297C119.21 12.9796 119.335 12.9021 119.441 12.802C119.547 12.7019 119.631 12.5813 119.689 12.4475C119.746 12.3138 119.776 12.1697 119.776 12.0241C119.776 11.8785 119.746 11.7345 119.689 11.6007C119.631 11.467 119.547 11.3464 119.441 11.2463C119.335 11.1462 119.21 11.0687 119.074 11.0185C118.937 10.9684 118.792 10.9466 118.646 10.9546H106.265C105.992 10.9695 105.735 11.0887 105.546 11.2877C105.358 11.4866 105.253 11.7502 105.253 12.0241C105.253 12.2981 105.358 12.5616 105.546 12.7606C105.735 12.9595 105.992 13.0787 106.265 13.0937H107.794C107.649 13.0857 107.503 13.1075 107.366 13.1577C107.23 13.2078 107.105 13.2853 106.999 13.3854C106.893 13.4855 106.809 13.6061 106.751 13.7399C106.694 13.8736 106.664 14.0177 106.664 14.1632C106.664 14.3088 106.694 14.4529 106.751 14.5866C106.809 14.7204 106.893 14.841 106.999 14.9411C107.105 15.0412 107.23 15.1187 107.366 15.1688C107.503 15.219 107.649 15.2408 107.794 15.2328H105.655C105.509 15.2249 105.364 15.2466 105.227 15.2968C105.091 15.3469 104.966 15.4244 104.86 15.5245C104.754 15.6246 104.67 15.7452 104.612 15.879C104.555 16.0127 104.525 16.1568 104.525 16.3024C104.525 16.448 104.555 16.592 104.612 16.7258C104.67 16.8595 104.754 16.9801 104.86 17.0802C104.966 17.1803 105.091 17.2578 105.227 17.3079C105.364 17.3581 105.509 17.3799 105.655 17.3719H118.035C118.181 17.3799 118.326 17.3581 118.463 17.3079C118.6 17.2578 118.725 17.1803 118.83 17.0802C118.936 16.9801 119.02 16.8595 119.078 16.7258C119.135 16.592 119.165 16.448 119.165 16.3024C119.165 16.1568 119.135 16.0127 119.078 15.879C119.02 15.7452 118.936 15.6246 118.83 15.5245C118.725 15.4244 118.6 15.3469 118.463 15.2968C118.326 15.2466 118.181 15.2249 118.035 15.2328H120.175C120.448 15.2178 120.706 15.0986 120.894 14.8997C121.082 14.7008 121.187 14.4372 121.187 14.1632C121.187 13.8893 121.082 13.6257 120.894 13.4268C120.706 13.2279 120.448 13.1087 120.175 13.0937Z" fill="#DEE3F3"/>
<path d="M16.2563 164.594C16.2563 164.594 21.8519 175.577 17.2923 181.585C12.7327 187.593 17.7079 203.968 17.7079 203.968" stroke="#7868E6" stroke-miterlimit="10"/>
<path d="M17.9254 161.16C17.9254 163.276 16.3714 164.997 16.3714 164.997C16.3714 164.997 14.8174 163.28 14.8174 161.16C14.8174 159.04 16.3714 157.323 16.3714 157.323C16.3714 157.323 17.9254 159.043 17.9254 161.16Z" fill="#7868E6"/>
<path d="M19.1564 164.594C19.1564 164.594 13.5608 175.577 18.1204 181.585C22.68 187.593 17.7047 203.968 17.7047 203.968" stroke="#7868E6" stroke-miterlimit="10"/>
<path d="M17.5001 161.16C17.5001 163.276 19.0541 164.997 19.0541 164.997C19.0541 164.997 20.6081 163.28 20.6081 161.16C20.6081 159.04 19.0541 157.323 19.0541 157.323C19.0541 157.323 17.5001 159.043 17.5001 161.16Z" fill="#7868E6"/>
<path opacity="0.1" d="M17.5001 161.16C17.5001 163.276 19.0541 164.997 19.0541 164.997C19.0541 164.997 20.6081 163.28 20.6081 161.16C20.6081 159.04 19.0541 157.323 19.0541 157.323C19.0541 157.323 17.5001 159.043 17.5001 161.16Z" fill="black"/>
<path d="M21.4426 164.594C21.4426 164.594 27.0382 175.577 22.4786 181.585C17.919 187.593 22.8943 203.968 22.8943 203.968" stroke="#7868E6" stroke-miterlimit="10"/>
<path d="M23.0957 161.16C23.0957 163.276 21.5417 164.997 21.5417 164.997C21.5417 164.997 19.9877 163.28 19.9877 161.16C19.9877 159.04 21.5417 157.323 21.5417 157.323C21.5417 157.323 23.0957 159.043 23.0957 161.16Z" fill="#7868E6"/>
<path d="M22.2228 169.959C20.7552 171.484 18.4434 171.644 18.4434 171.644C18.4434 171.644 18.5137 169.329 19.9814 167.807C21.449 166.285 23.7608 166.122 23.7608 166.122C23.7608 166.122 23.6809 168.431 22.2228 169.959Z" fill="#7868E6"/>
<path d="M22.3699 177.537C20.9022 179.062 18.5905 179.222 18.5905 179.222C18.5905 179.222 18.6608 176.907 20.1284 175.385C21.5961 173.863 23.9079 173.7 23.9079 173.7C23.9079 173.7 23.8375 176.009 22.3699 177.537Z" fill="#7868E6"/>
<path d="M14.4081 181.703C15.7958 183.302 15.7479 185.617 15.7479 185.617C15.7479 185.617 13.4489 185.339 12.0612 183.74C10.6735 182.142 10.7214 179.827 10.7214 179.827C10.7214 179.827 13.0204 180.105 14.4081 181.703Z" fill="#7868E6"/>
<path d="M15.6871 165.553C17.4522 166.723 18.0245 168.968 18.0245 168.968C18.0245 168.968 15.7351 169.316 13.9701 168.146C12.2051 166.976 11.6327 164.731 11.6327 164.731C11.6327 164.731 13.9317 164.376 15.6871 165.553Z" fill="#7868E6"/>
<path opacity="0.1" d="M15.6871 165.553C17.4522 166.723 18.0245 168.968 18.0245 168.968C18.0245 168.968 15.7351 169.316 13.9701 168.146C12.2051 166.976 11.6327 164.731 11.6327 164.731C11.6327 164.731 13.9317 164.376 15.6871 165.553Z" fill="black"/>
<path d="M24.3363 164.594C24.3363 164.594 18.7407 175.577 23.3004 181.585C27.86 187.593 22.8847 203.968 22.8847 203.968" stroke="#7868E6" stroke-miterlimit="10"/>
<path d="M22.68 161.16C22.68 163.276 24.234 164.997 24.234 164.997C24.234 164.997 25.788 163.28 25.788 161.16C25.788 159.04 24.234 157.323 24.234 157.323C24.234 157.323 22.68 159.043 22.68 161.16Z" fill="#7868E6"/>
<path opacity="0.1" d="M22.68 161.16C22.68 163.276 24.234 164.997 24.234 164.997C24.234 164.997 25.788 163.28 25.788 161.16C25.788 159.04 24.234 157.323 24.234 157.323C24.234 157.323 22.68 159.043 22.68 161.16Z" fill="black"/>
<path d="M23.1277 170.122C21.6409 171.631 21.5289 173.959 21.5289 173.959C21.5289 173.959 23.8407 173.828 25.3276 172.319C26.8144 170.81 26.9263 168.482 26.9263 168.482C26.9263 168.482 24.6145 168.613 23.1277 170.122Z" fill="#7868E6"/>
<path opacity="0.1" d="M23.1277 170.122C21.6409 171.631 21.5289 173.959 21.5289 173.959C21.5289 173.959 23.8407 173.828 25.3276 172.319C26.8144 170.81 26.9263 168.482 26.9263 168.482C26.9263 168.482 24.6145 168.613 23.1277 170.122Z" fill="black"/>
<path d="M26.0406 180.613C24.5538 182.122 24.4419 184.45 24.4419 184.45C24.4419 184.45 26.7536 184.319 28.2405 182.81C29.7273 181.301 29.8392 178.973 29.8392 178.973C29.8392 178.973 27.5178 179.104 26.0406 180.613Z" fill="#7868E6"/>
<path d="M21.7624 178.308C21.7624 178.308 25.1293 173 29.8584 172.872" stroke="#7868E6" stroke-miterlimit="10"/>
<path d="M19.1308 175.101C19.1308 175.101 15.7639 169.793 11.0348 169.665" stroke="#7868E6" stroke-miterlimit="10"/>
<path d="M18.6928 182.679C18.6928 182.679 22.0597 177.371 26.7888 177.243" stroke="#7868E6" stroke-miterlimit="10"/>
<path d="M29.6953 173.716C30.1774 173.716 30.5682 173.325 30.5682 172.843C30.5682 172.361 30.1774 171.97 29.6953 171.97C29.2132 171.97 28.8224 172.361 28.8224 172.843C28.8224 173.325 29.2132 173.716 29.6953 173.716Z" fill="#7868E6"/>
<path d="M11.1179 170.583C11.6 170.583 11.9908 170.192 11.9908 169.71C11.9908 169.228 11.6 168.837 11.1179 168.837C10.6358 168.837 10.245 169.228 10.245 169.71C10.245 170.192 10.6358 170.583 11.1179 170.583Z" fill="#7868E6"/>
<path d="M21.1708 184.418C21.1708 184.418 17.8039 179.11 13.0748 178.982" stroke="#7868E6" stroke-miterlimit="10"/>
<path d="M13.1579 179.906C13.64 179.906 14.0308 179.516 14.0308 179.034C14.0308 178.551 13.64 178.161 13.1579 178.161C12.6758 178.161 12.285 178.551 12.285 179.034C12.285 179.516 12.6758 179.906 13.1579 179.906Z" fill="#7868E6"/>
<path d="M26.8528 178.161C27.3349 178.161 27.7257 177.77 27.7257 177.288C27.7257 176.806 27.3349 176.415 26.8528 176.415C26.3707 176.415 25.9798 176.806 25.9798 177.288C25.9798 177.77 26.3707 178.161 26.8528 178.161Z" fill="#7868E6"/>
<path d="M39.7898 197.576C39.7898 197.576 31.6746 195.951 29.5067 193.787C27.3388 191.622 17.6056 187.836 16.5217 190.541C15.4377 193.246 1.91237 202.446 11.1115 204.07C20.3107 205.694 32.7553 206.235 35.4604 205.151C38.1655 204.067 39.7898 197.576 39.7898 197.576Z" fill="#A8A8A8"/>
<path opacity="0.2" d="M11.1115 203.063C20.3107 204.687 32.7553 205.227 35.4604 204.143C37.5196 203.318 38.952 199.347 39.518 197.518L39.7898 197.576C39.7898 197.576 38.1655 204.07 35.4604 205.151C32.7553 206.231 20.3107 205.691 11.1115 204.07C8.45762 203.6 7.69662 202.5 7.98439 201.109C8.20821 202.004 9.13548 202.714 11.1115 203.063Z" fill="black"/>
<path d="M286.172 167.081C286.172 167.081 288.851 170.599 284.935 175.874C281.018 181.15 277.788 185.63 279.096 188.93C279.096 188.93 285.005 179.104 289.814 178.966C294.623 178.829 291.464 172.987 286.172 167.081Z" fill="#7868E6"/>
<path opacity="0.1" d="M286.172 167.081C286.405 167.42 286.59 167.791 286.719 168.181C291.413 173.694 293.91 178.839 289.401 178.97C285.2 179.091 280.161 186.602 278.952 188.501C278.992 188.648 279.04 188.792 279.096 188.933C279.096 188.933 285.005 179.107 289.814 178.97C294.623 178.832 291.464 172.987 286.172 167.081Z" fill="black"/>
<path d="M291.154 171.545C291.154 172.779 291.016 173.783 290.834 173.783C290.652 173.783 290.514 172.782 290.514 171.545C290.514 170.308 290.687 170.906 290.856 170.906C291.026 170.906 291.154 170.314 291.154 171.545Z" fill="#FFD037"/>
<path d="M292.864 173.019C291.78 173.611 290.837 173.978 290.757 173.815C290.677 173.652 291.486 173.064 292.57 172.476C293.654 171.887 293.226 172.316 293.309 172.476C293.392 172.635 293.945 172.428 292.864 173.019Z" fill="#FFD037"/>
<path d="M272.02 167.081C272.02 167.081 269.34 170.599 273.257 175.874C277.174 181.15 280.404 185.63 279.096 188.93C279.096 188.93 273.187 179.104 268.378 178.966C263.569 178.829 266.728 172.987 272.02 167.081Z" fill="#7868E6"/>
<path opacity="0.1" d="M272.02 167.081C271.786 167.42 271.602 167.791 271.473 168.181C266.779 173.694 264.282 178.839 268.79 178.97C272.992 179.091 278.031 186.602 279.24 188.501C279.2 188.648 279.152 188.792 279.096 188.933C279.096 188.933 273.187 179.107 268.378 178.97C263.569 178.832 266.728 172.987 272.02 167.081Z" fill="black"/>
<path d="M267.038 171.545C267.038 172.779 267.176 173.783 267.358 173.783C267.54 173.783 267.678 172.782 267.678 171.545C267.678 170.308 267.505 170.906 267.336 170.906C267.166 170.906 267.038 170.314 267.038 171.545Z" fill="#FFD037"/>
<path d="M265.328 173.019C266.412 173.611 267.355 173.978 267.435 173.815C267.515 173.652 266.706 173.064 265.622 172.476C264.538 171.887 264.966 172.316 264.883 172.476C264.8 172.635 264.244 172.428 265.328 173.019Z" fill="#FFD037"/>
<path d="M267.892 188.469C267.892 188.469 275.384 188.239 277.641 186.631C279.899 185.022 289.152 183.114 289.724 185.672C290.297 188.23 300.983 198.497 292.525 198.564C284.068 198.631 272.874 197.246 270.619 195.875C268.365 194.503 267.892 188.469 267.892 188.469Z" fill="#A8A8A8"/>
<path opacity="0.2" d="M292.676 197.678C284.218 197.745 273.024 196.361 270.77 194.989C269.053 193.943 268.368 190.193 268.141 188.463H267.892C267.892 188.463 268.365 194.506 270.619 195.878C272.874 197.25 284.068 198.637 292.525 198.567C294.968 198.548 295.809 197.678 295.765 196.393C295.426 197.176 294.508 197.662 292.676 197.678Z" fill="black"/>
<path opacity="0.5" d="M56.9155 23.866H54.9075C55.0977 23.8751 55.2877 23.8455 55.4661 23.7789C55.6445 23.7124 55.8076 23.6104 55.9454 23.479C56.0832 23.3476 56.1929 23.1896 56.2678 23.0146C56.3428 22.8395 56.3814 22.6511 56.3814 22.4607C56.3814 22.2703 56.3428 22.0819 56.2678 21.9069C56.1929 21.7318 56.0832 21.5739 55.9454 21.4425C55.8076 21.3111 55.6445 21.209 55.4661 21.1425C55.2877 21.076 55.0977 21.0464 54.9075 21.0554H38.6387C38.2776 21.0727 37.9369 21.2282 37.6875 21.4899C37.438 21.7516 37.2988 22.0992 37.2988 22.4607C37.2988 22.8223 37.438 23.1699 37.6875 23.4316C37.9369 23.6932 38.2776 23.8488 38.6387 23.866H40.6467C40.2856 23.8833 39.945 24.0388 39.6955 24.3005C39.446 24.5621 39.3069 24.9098 39.3069 25.2713C39.3069 25.6328 39.446 25.9805 39.6955 26.2421C39.945 26.5038 40.2856 26.6594 40.6467 26.6766H37.8361C37.475 26.6938 37.1344 26.8494 36.8849 27.1111C36.6354 27.3727 36.4963 27.7204 36.4963 28.0819C36.4963 28.4434 36.6354 28.7911 36.8849 29.0527C37.1344 29.3144 37.475 29.47 37.8361 29.4872H54.1049C54.2951 29.4963 54.4851 29.4666 54.6635 29.4001C54.8419 29.3336 55.005 29.2315 55.1428 29.1002C55.2806 28.9688 55.3903 28.8108 55.4653 28.6358C55.5402 28.4607 55.5789 28.2723 55.5789 28.0819C55.5789 27.8915 55.5402 27.7031 55.4653 27.5281C55.3903 27.353 55.2806 27.195 55.1428 27.0636C55.005 26.9323 54.8419 26.8302 54.6635 26.7637C54.4851 26.6972 54.2951 26.6675 54.1049 26.6766H56.9155C57.2766 26.6594 57.6172 26.5038 57.8667 26.2421C58.1162 25.9805 58.2553 25.6328 58.2553 25.2713C58.2553 24.9098 58.1162 24.5621 57.8667 24.3005C57.6172 24.0388 57.2766 23.8833 56.9155 23.866Z" fill="#DEE3F3"/>
</g>
<defs>
<linearGradient id="paint0_linear" x1="147.296" y1="173.866" x2="147.296" y2="41.4906" gradientUnits="userSpaceOnUse">
<stop stop-color="#808080" stop-opacity="0.25"/>
<stop offset="0.54" stop-color="#808080" stop-opacity="0.12"/>
<stop offset="1" stop-color="#808080" stop-opacity="0.1"/>
</linearGradient>
<linearGradient id="paint1_linear" x1="122.475" y1="151.352" x2="122.475" y2="151.337" gradientUnits="userSpaceOnUse">
<stop stop-color="#808080" stop-opacity="0.25"/>
<stop offset="0.54" stop-color="#808080" stop-opacity="0.12"/>
<stop offset="1" stop-color="#808080" stop-opacity="0.1"/>
</linearGradient>
<linearGradient id="paint2_linear" x1="20590.4" y1="64652.8" x2="20590.4" y2="28987" gradientUnits="userSpaceOnUse">
<stop stop-color="#808080" stop-opacity="0.25"/>
<stop offset="0.54" stop-color="#808080" stop-opacity="0.12"/>
<stop offset="1" stop-color="#808080" stop-opacity="0.1"/>
</linearGradient>
<linearGradient id="paint3_linear" x1="58003.1" y1="78371.7" x2="58003.1" y2="25402.5" gradientUnits="userSpaceOnUse">
<stop stop-color="#808080" stop-opacity="0.25"/>
<stop offset="0.54" stop-color="#808080" stop-opacity="0.12"/>
<stop offset="1" stop-color="#808080" stop-opacity="0.1"/>
</linearGradient>
<clipPath id="clip0">
<rect width="303.697" height="211.52" fill="white" transform="translate(0.0514374)"/>
</clipPath>
</defs>
</svg>
